<?xml version="1.0" standalone="no"?>
<!DOCTYPE svg PUBLIC "-//W3C//DTD SVG 20010904//EN"
 "http://www.w3.org/TR/2001/REC-SVG-20010904/DTD/svg10.dtd">
<svg version="1.0" xmlns="http://www.w3.org/2000/svg"
 width="1200.000000pt" height="630.000000pt" viewBox="0 0 1200.000000 630.000000"
 preserveAspectRatio="xMidYMid meet">

<g transform="translate(0.000000,630.000000) scale(0.100000,-0.100000)"
fill="#000000" stroke="none">
<path d="M0 3804 l0 -2496 108 6 c1009 58 3678 126 4924 126 l448 0 6 40 c4
22 10 40 15 40 5 0 18 31 30 70 19 62 23 69 39 60 10 -6 23 -10 29 -10 17 0
59 71 69 117 10 44 2 63 -29 63 -14 0 -28 26 -29 52 0 4 15 15 33 24 l32 16
-28 -29 c-24 -25 -26 -32 -13 -42 11 -10 21 -5 49 21 19 18 38 47 42 63 l8 30
9 -32 c5 -21 19 -38 38 -48 33 -17 60 -20 60 -5 0 10 56 29 113 37 23 3 37 1
37 -6 0 -6 7 -11 15 -11 8 0 15 -4 15 -8 0 -5 -13 -7 -28 -4 -23 3 -37 -4 -68
-33 -21 -20 -29 -31 -17 -24 12 7 25 10 29 7 11 -12 -5 -58 -21 -58 -7 0 -16
-4 -19 -9 -3 -4 18 -4 47 1 43 8 111 7 184 -4 17 -2 35 -47 28 -69 -8 -23 -18
-24 -35 -4 -7 8 -17 15 -23 15 -5 0 2 -9 17 -21 14 -11 30 -18 35 -14 13 7 26
-14 15 -25 -5 -5 -33 6 -63 25 -60 38 -78 42 -198 48 -61 3 -83 0 -83 -9 0 -6
-7 -14 -15 -18 -17 -6 -14 -31 11 -102 21 -61 51 -83 125 -95 35 -6 65 -12 68
-14 4 -5 -27 -32 -79 -70 -50 -35 -88 -40 -126 -16 -79 49 -112 138 -79 211
21 46 15 60 -11 32 -11 -11 -37 -25 -60 -31 -49 -13 -69 -33 -82 -83 -19 -69
15 -153 78 -194 55 -36 51 -48 -11 -40 -59 8 -60 -9 -1 -20 l37 -7 -34 -9
c-19 -5 -30 -13 -24 -16 15 -10 41 -65 36 -79 -2 -6 10 -14 26 -18 17 -4 33
-11 36 -16 4 -5 -5 -5 -20 1 -40 15 -43 12 -10 -11 23 -15 25 -19 8 -14 -18 5
-22 1 -28 -27 -9 -47 -26 -88 -36 -88 -16 0 -10 54 10 93 10 20 15 37 9 37
-11 0 -34 -53 -43 -103 l-7 -38 43 3 c42 3 43 4 55 52 7 26 22 58 33 70 19 20
30 22 111 21 72 -1 94 -5 108 -19 14 -14 14 -17 2 -16 -32 5 -38 -2 -44 -47
-12 -86 -17 -102 -34 -106 -9 -3 10 -5 43 -4 33 0 50 2 38 4 -21 4 -23 10 -22
61 l0 57 26 -57 c25 -57 26 -58 67 -58 54 0 113 17 119 34 3 7 23 17 44 21 21
4 43 10 48 15 6 4 21 10 34 12 33 4 40 28 8 28 -19 0 -28 8 -40 39 -15 36 -60
84 -89 93 -10 4 -8 9 5 22 22 22 22 42 0 54 -14 8 -15 14 -4 40 11 27 11 34
-3 47 -9 9 -16 22 -16 29 0 8 -3 28 -6 45 l-6 31 663 0 c1050 0 2528 -28 3774
-70 596 -21 1216 -45 1363 -55 l82 -5 0 2495 0 2495 -6000 0 -6000 0 0 -2496z
m9020 2126 c0 -5 -7 -10 -15 -10 -8 0 -15 5 -15 10 0 6 7 10 15 10 8 0 15 -4
15 -10z m-2692 -57 c-38 -2 -98 -2 -135 0 -38 2 -7 3 67 3 74 0 105 -1 68 -3z
m-323 -13 c-33 -4 -80 -8 -105 -7 -44 0 -44 0 10 7 30 4 78 7 105 7 l50 0 -60
-7z m523 3 c-15 -2 -42 -2 -60 0 -18 2 -6 4 27 4 33 0 48 -2 33 -4z m182 -18
c69 -15 71 -15 -95 5 -56 7 -57 7 -15 8 25 1 74 -5 110 -13z m-867 -2 c-7 -2
-21 -2 -30 0 -10 3 -4 5 12 5 17 0 24 -2 18 -5z m-60 -10 c-7 -2 -19 -2 -25 0
-7 3 -2 5 12 5 14 0 19 -2 13 -5z m-191 -38 c-374 -89 -723 -255 -992 -472
-98 -80 -280 -268 -356 -368 -162 -214 -287 -456 -363 -705 -18 -58 -39 -124
-46 -147 -12 -37 -11 -43 3 -55 9 -7 13 -8 9 -2 -4 7 14 31 42 57 46 43 47 46
33 72 -7 15 -9 24 -4 21 6 -3 14 -2 17 4 5 8 14 6 30 -4 20 -13 25 -13 54 7
20 14 30 28 27 39 -6 25 21 45 43 31 14 -9 20 -7 28 6 28 45 507 297 693 365
52 19 158 59 235 89 339 134 641 198 1009 213 233 10 534 -22 749 -80 l86 -23
48 50 c116 120 279 238 324 236 8 0 -8 -11 -36 -23 -27 -13 -72 -40 -99 -59
-53 -38 -216 -193 -216 -205 0 -4 33 -18 73 -31 153 -49 357 -159 499 -267 31
-24 59 -44 62 -44 10 0 6 211 -5 305 -19 155 -63 259 -127 301 -14 9 -51 20
-81 24 l-56 7 48 2 c54 1 90 -14 128 -56 71 -76 100 -195 106 -429 l4 -172 49
-49 c28 -28 50 -47 50 -43 0 4 -7 13 -15 20 -13 10 -11 16 9 44 27 36 171 287
171 299 0 4 5 11 11 15 6 4 25 33 43 65 18 31 35 57 37 57 3 0 -8 -24 -24 -52
-102 -179 -222 -405 -222 -418 0 -22 16 4 143 240 128 238 137 258 117 245
-14 -9 15 46 77 144 19 29 36 51 39 48 6 -6 -27 -73 -171 -342 -207 -388 -206
-385 -196 -404 18 -33 37 -43 51 -26 19 23 27 18 27 -15 0 -16 -4 -27 -9 -24
-15 10 -8 -8 35 -85 23 -42 50 -95 60 -118 9 -24 25 -62 34 -85 20 -51 43 -85
61 -92 7 -3 10 -1 7 4 -12 20 7 32 20 13 11 -15 11 -21 -2 -35 -8 -10 -13 -24
-10 -32 4 -9 2 -18 -4 -22 -6 -3 -8 -13 -5 -21 3 -8 -1 -21 -9 -30 -33 -33 0
-31 63 3 133 72 446 176 518 173 11 0 -18 -9 -63 -19 -113 -26 -266 -81 -402
-147 -102 -48 -112 -55 -95 -67 17 -13 16 -14 -6 -21 -15 -5 -25 -4 -28 4 -6
18 -20 13 -28 -11 -14 -47 -76 -168 -86 -168 -11 0 -13 -5 35 88 21 40 35 77
32 82 -4 6 -2 10 4 10 6 0 8 12 5 30 -5 24 -3 30 10 30 10 0 14 5 11 10 -10
17 -21 11 -36 -17 -16 -32 -48 -62 -66 -63 -24 0 -24 21 1 51 14 17 26 27 26
22 0 -5 -5 -14 -12 -21 -7 -7 -8 -12 -2 -12 16 0 34 22 34 43 0 10 4 16 9 13
5 -3 17 7 27 22 9 15 24 32 33 38 13 10 13 14 2 28 -12 14 -16 14 -41 1 -16
-8 -30 -20 -32 -27 -3 -7 -10 -8 -17 -4 -10 6 -6 14 14 30 24 19 26 25 16 44
-8 14 -8 22 -1 22 17 0 12 23 -26 110 -49 113 -92 190 -106 190 -8 0 -95 -130
-104 -154 -2 -6 1 -18 6 -26 9 -13 11 -13 20 0 13 20 12 39 -1 20 -9 -13 -10
-13 -6 0 2 8 14 14 26 13 23 -3 29 12 9 20 -8 3 -6 6 5 6 24 1 21 -20 -9 -64
l-26 -38 19 -39 c10 -21 23 -38 30 -38 15 0 44 -58 33 -65 -12 -8 -54 10 -70
31 -11 12 -12 18 -3 21 8 3 9 12 1 34 -13 38 -24 37 -47 -8 -10 -21 -28 -47
-40 -57 -12 -11 -21 -26 -21 -35 0 -12 -3 -12 -12 -3 -10 10 -10 15 1 22 8 4
15 19 16 31 l2 22 -18 -22 c-12 -14 -23 -20 -31 -15 -9 6 -9 3 1 -9 20 -25 24
-74 6 -81 -9 -3 -12 0 -8 9 3 9 -4 18 -19 24 -13 5 -30 16 -37 25 -17 20 -7
48 14 40 8 -3 15 -2 16 2 9 73 8 104 -3 104 -6 0 -8 -3 -5 -6 4 -4 -10 -37
-29 -73 -54 -99 -60 -98 -14 2 39 83 41 90 25 107 -18 20 -5 36 20 26 21 -8
32 21 34 85 l1 56 -83 83 c-166 168 -391 305 -629 384 -40 13 -80 27 -89 31
-12 4 -18 -1 -23 -20 -8 -32 -25 -25 -19 8 5 23 0 25 -99 46 -284 61 -449 71
-693 42 -355 -42 -584 -101 -918 -238 -166 -67 -465 -227 -537 -287 -14 -11
-7 -1 15 22 22 24 32 40 23 37 -47 -18 -265 -304 -254 -332 3 -8 2 -12 -3 -9
-8 5 -50 -72 -65 -117 -7 -23 11 -60 25 -51 6 3 9 -2 7 -12 -2 -15 6 -20 46
-26 55 -8 209 -59 214 -70 5 -12 32 -9 32 3 0 6 -12 26 -27 45 -22 29 -24 37
-12 45 21 13 23 12 37 -21 8 -16 21 -30 29 -30 9 0 13 -6 9 -15 -3 -9 3 -19
15 -25 11 -6 17 -15 14 -19 -6 -11 46 -46 63 -43 17 4 15 -15 -3 -22 -8 -3
-15 -12 -15 -21 0 -21 -4 -19 -38 15 -19 19 -36 28 -46 24 -10 -4 -16 -1 -16
8 0 18 -63 49 -109 55 -19 2 -40 11 -47 21 -10 14 -14 15 -30 2 -16 -14 -17
-13 -11 3 4 11 2 17 -8 17 -8 0 -15 -4 -15 -10 0 -5 -5 -10 -10 -10 -6 0 -9 3
-9 8 3 19 -2 23 -16 12 -12 -10 -12 -15 2 -36 9 -15 22 -23 31 -19 9 3 12 0 9
-9 -9 -23 40 -86 68 -86 44 0 43 -31 -1 -63 -19 -14 -28 -16 -38 -7 -8 6 -18
9 -22 8 -5 -2 -10 2 -11 7 -2 6 3 10 10 10 15 0 29 17 19 25 -4 3 -15 19 -24
35 -10 17 -24 29 -33 27 -8 -2 -15 2 -15 8 0 5 4 10 10 10 13 0 -28 67 -51 84
-21 14 -64 10 -77 -8 -12 -16 -35 -116 -28 -123 3 -3 1 -14 -5 -25 -13 -25 16
-56 46 -50 15 4 17 2 8 -9 -9 -11 -6 -20 13 -42 13 -15 24 -23 24 -18 0 6 5
11 11 11 6 0 9 -7 5 -15 -3 -9 3 -20 14 -27 11 -7 20 -18 20 -24 0 -6 9 -23
21 -38 17 -21 24 -24 35 -15 22 18 14 -32 -8 -56 -16 -16 -18 -17 -18 -2 0 9
5 17 11 17 8 0 8 5 -1 15 -7 8 -19 15 -26 15 -8 0 -14 7 -14 15 0 17 -16 20
-25 5 -3 -5 -11 -10 -16 -10 -6 0 -7 5 -4 11 7 11 -31 59 -47 59 -4 0 -8 -9
-8 -19 0 -10 -7 -21 -15 -25 -8 -3 -15 -1 -15 5 0 14 -41 48 -57 49 -7 0 -13
5 -13 11 0 6 -7 8 -16 5 -10 -4 -14 -1 -11 6 4 12 -40 48 -74 60 -13 5 -18 -2
-22 -35 -3 -24 -1 -44 5 -48 7 -4 7 -9 -1 -13 -6 -4 -11 -18 -11 -31 0 -34
-16 -39 -46 -16 -15 11 -30 18 -35 15 -5 -3 -6 2 -3 10 7 18 44 22 44 5 0 -5
5 -7 11 -3 8 5 8 8 0 14 -8 5 -7 15 4 36 8 16 15 45 15 66 0 35 -3 38 -87 91
-116 72 -111 69 -109 50 0 -9 -9 -22 -22 -29 -23 -11 -22 -13 39 -60 34 -27
66 -48 71 -46 5 1 7 -2 4 -7 -4 -5 13 -25 36 -45 27 -24 36 -36 25 -36 -9 0
-17 5 -17 11 0 8 -6 7 -16 -2 -15 -12 -16 -11 -9 11 7 24 7 24 -8 5 -9 -11
-19 -17 -23 -13 -4 4 -2 14 5 22 10 11 6 18 -17 35 -22 15 -29 17 -29 6 0 -8
4 -12 9 -9 4 3 8 0 8 -5 0 -6 8 -11 17 -11 12 0 14 -3 6 -11 -12 -12 -43 1
-77 32 -14 14 -23 16 -32 8 -10 -8 -20 -5 -40 10 -15 12 -30 17 -33 12 -3 -5
-21 -26 -38 -47 -180 -215 -237 -288 -317 -409 -103 -154 -152 -246 -216 -408
-24 -59 -45 -106 -47 -103 -5 5 23 119 39 159 10 26 7 34 -29 85 -50 72 -94
142 -89 142 2 0 31 -38 65 -85 34 -47 66 -85 72 -85 5 0 8 3 7 8 -6 22 88 285
114 319 5 7 5 14 -2 18 -16 10 -12 22 8 27 11 3 36 40 62 94 23 49 49 96 56
105 12 13 12 18 0 34 -17 23 1 46 30 39 15 -4 28 11 61 65 l42 71 -22 15 c-12
8 -22 19 -22 23 0 5 -17 23 -38 41 -21 19 -35 36 -32 39 7 7 -35 52 -49 52 -6
0 3 -12 19 -26 17 -14 26 -24 20 -22 -19 6 -94 63 -95 72 0 5 9 1 20 -9 11
-10 22 -16 25 -13 3 3 -1 11 -10 18 -27 22 -16 32 13 11 88 -68 85 -68 46 -4
-38 63 -44 109 -16 115 32 7 119 -19 210 -62 50 -23 95 -41 101 -39 5 2 62 55
125 118 l116 114 -20 27 c-10 15 -26 33 -35 40 -24 20 -39 51 -23 48 7 -2 12
3 10 10 -4 21 34 -4 58 -38 26 -37 36 -38 44 -2 13 59 46 178 55 197 6 11 26
63 46 115 21 52 66 150 100 217 306 591 816 984 1510 1164 83 21 161 38 175
38 14 0 -40 -16 -118 -34z m1344 10 c64 -14 118 -25 121 -25 4 0 4 -2 1 -5 -4
-5 -226 39 -253 50 -29 11 28 2 131 -20z m255 -66 c152 -45 365 -131 522 -212
604 -308 1048 -801 1240 -1377 41 -122 84 -309 92 -395 3 -40 -2 -24 -15 47
-92 499 -304 896 -671 1253 -314 305 -735 547 -1174 676 -60 17 -112 33 -114
35 -11 10 24 2 120 -27z m-5641 5 c0 -9 -5 -14 -12 -12 -18 6 -21 28 -4 28 9
0 16 -7 16 -16z m1255 -154 c3 -6 -1 -13 -10 -16 -19 -8 -30 0 -20 15 8 14 22
14 30 1z m7190 -90 c-5 -8 -11 -8 -17 -2 -6 6 -7 16 -3 22 5 8 11 8 17 2 6 -6
7 -16 3 -22z m-1460 11 c7 -12 -12 -24 -25 -16 -11 7 -4 25 10 25 5 0 11 -4
15 -9z m-6114 -266 c-1 -15 -24 -12 -29 3 -3 9 2 13 12 10 10 -1 17 -7 17 -13z
m-601 -136 c0 -5 -7 -9 -15 -9 -15 0 -20 12 -9 23 8 8 24 -1 24 -14z m1828
-41 c-6 -18 -28 -21 -28 -4 0 9 7 16 16 16 9 0 14 -5 12 -12z m4362 -268 c0
-5 -2 -10 -4 -10 -3 0 -8 5 -11 10 -3 6 -1 10 4 10 6 0 11 -4 11 -10z m-5662
-108 c2 -7 -3 -12 -12 -12 -9 0 -16 7 -16 16 0 17 22 14 28 -4z m482 -33 c0
-5 -4 -9 -10 -9 -5 0 -10 7 -10 16 0 8 5 12 10 9 6 -3 10 -10 10 -16z m40 -19
c0 -5 -4 -10 -10 -10 -5 0 -10 5 -10 10 0 6 5 10 10 10 6 0 10 -4 10 -10z
m5030 -51 c0 -5 -4 -9 -10 -9 -5 0 -10 7 -10 16 0 8 5 12 10 9 6 -3 10 -10 10
-16z m-4015 -69 c3 -5 1 -10 -4 -10 -6 0 -11 5 -11 10 0 6 2 10 4 10 3 0 8 -4
11 -10z m4275 -30 c0 -5 -4 -10 -10 -10 -5 0 -10 5 -10 10 0 6 5 10 10 10 6 0
10 -4 10 -10z m-240 -10 c0 -5 -4 -10 -10 -10 -5 0 -10 5 -10 10 0 6 5 10 10
10 6 0 10 -4 10 -10z m-1362 -29 c251 -54 428 -140 578 -283 83 -79 120 -127
175 -228 23 -42 41 -64 51 -62 9 1 18 -6 20 -16 6 -23 -17 -57 -31 -47 -16 9
-13 25 3 19 8 -3 17 -1 20 4 3 5 0 10 -7 9 -35 -1 -44 4 -44 26 0 34 -80 160
-147 234 -147 160 -350 268 -613 324 -114 25 -392 34 -526 19 -45 -5 -102 -12
-127 -15 -25 -3 -58 -9 -75 -14 -16 -5 -47 -12 -68 -16 -125 -21 -497 -167
-497 -195 0 -6 -6 -10 -12 -7 -7 2 -21 0 -32 -5 -15 -8 -16 -12 -5 -20 11 -8
10 -9 -4 -4 -24 8 -65 -13 -47 -24 9 -5 9 -9 1 -14 -6 -4 -11 -2 -11 3 0 19
-15 12 -96 -47 -157 -116 -320 -276 -295 -292 9 -5 10 -10 2 -14 -6 -4 -11 -1
-11 6 0 8 -6 6 -17 -5 -15 -15 -16 -19 -4 -26 9 -6 10 -11 2 -15 -6 -4 -11 -2
-11 5 0 8 -4 8 -15 -1 -9 -7 -14 -19 -11 -27 3 -7 -1 -13 -9 -13 -8 0 -16 -4
-16 -10 -1 -5 -2 -15 -3 -20 0 -6 -5 -14 -11 -18 -31 -22 -86 -146 -79 -180 6
-32 -9 -50 -47 -54 -34 -4 -38 33 -7 58 13 11 38 49 55 85 17 37 47 92 67 123
20 31 31 56 26 56 -6 0 -10 5 -10 11 0 6 6 9 14 6 8 -3 20 1 26 9 10 11 10 14
0 14 -8 0 -10 3 -6 8 4 4 13 7 19 7 7 0 13 10 15 21 2 12 12 24 24 27 11 3 17
10 13 16 -3 6 1 11 10 11 9 0 19 9 22 20 3 11 10 20 15 20 5 0 26 17 47 38 59
60 172 154 212 177 10 6 62 35 116 67 128 74 233 121 369 167 68 23 109 42
106 49 -2 7 1 12 6 12 6 0 12 -5 14 -10 2 -7 23 -5 58 4 30 8 100 21 155 30
55 9 111 18 125 20 14 3 117 3 230 1 157 -3 227 -8 298 -24z m-2813 -1 c3 -5
-1 -10 -10 -10 -9 0 -13 5 -10 10 3 6 8 10 10 10 2 0 7 -4 10 -10z m1585 0 c0
-5 -5 -10 -11 -10 -5 0 -7 5 -4 10 3 6 8 10 11 10 2 0 4 -4 4 -10z m2735 -10
c-3 -5 -10 -10 -16 -10 -5 0 -9 5 -9 10 0 6 7 10 16 10 8 0 12 -4 9 -10z
m-2835 -4 c0 -3 -4 -8 -10 -11 -5 -3 -10 -1 -10 4 0 6 5 11 10 11 6 0 10 -2
10 -4z m790 0 c0 -3 -4 -8 -10 -11 -5 -3 -10 -1 -10 4 0 6 5 11 10 11 6 0 10
-2 10 -4z m-840 -26 c0 -5 -5 -10 -11 -10 -5 0 -7 5 -4 10 3 6 8 10 11 10 2 0
4 -4 4 -10z m270 0 c0 -5 -4 -10 -10 -10 -5 0 -10 5 -10 10 0 6 5 10 10 10 6
0 10 -4 10 -10z m440 0 c0 -5 -5 -10 -11 -10 -5 0 -7 5 -4 10 3 6 8 10 11 10
2 0 4 -4 4 -10z m-660 -4 c0 -3 -4 -8 -10 -11 -5 -3 -10 -1 -10 4 0 6 5 11 10
11 6 0 10 -2 10 -4z m2599 -20 c-2 -2 -14 -7 -26 -10 -17 -5 -23 -3 -23 8 0
17 30 27 44 14 5 -4 8 -9 5 -12z m-2489 10 c0 -3 -4 -8 -10 -11 -5 -3 -10 -1
-10 4 0 6 5 11 10 11 6 0 10 -2 10 -4z m2620 -11 c0 -8 -4 -15 -10 -15 -5 0
-10 7 -10 15 0 8 5 15 10 15 6 0 10 -7 10 -15z m270 5 c0 -5 -4 -10 -10 -10
-5 0 -10 5 -10 10 0 6 5 10 10 10 6 0 10 -4 10 -10z m-3050 -10 c0 -5 -5 -10
-11 -10 -5 0 -7 5 -4 10 3 6 8 10 11 10 2 0 4 -4 4 -10z m720 0 c0 -5 -4 -10
-10 -10 -5 0 -10 5 -10 10 0 6 5 10 10 10 6 0 10 -4 10 -10z m70 0 c0 -5 -4
-10 -10 -10 -5 0 -10 5 -10 10 0 6 5 10 10 10 6 0 10 -4 10 -10z m-740 -10 c0
-5 -4 -10 -10 -10 -5 0 -10 5 -10 10 0 6 5 10 10 10 6 0 10 -4 10 -10z m2530
0 c8 -5 12 -12 8 -15 -9 -9 -48 4 -48 16 0 12 21 11 40 -1z m-2680 -10 c0 -5
-5 -10 -11 -10 -5 0 -7 5 -4 10 3 6 8 10 11 10 2 0 4 -4 4 -10z m260 0 c0 -5
-5 -10 -11 -10 -5 0 -7 5 -4 10 3 6 8 10 11 10 2 0 4 -4 4 -10z m370 6 c0 -3
-4 -8 -10 -11 -5 -3 -10 -1 -10 4 0 6 5 11 10 11 6 0 10 -2 10 -4z m65 -6 c3
-5 1 -10 -4 -10 -6 0 -11 5 -11 10 0 6 2 10 4 10 3 0 8 -4 11 -10z m205 -10
c0 -5 -4 -10 -10 -10 -5 0 -10 5 -10 10 0 6 5 10 10 10 6 0 10 -4 10 -10z
m2480 0 c0 -5 -4 -10 -10 -10 -5 0 -10 5 -10 10 0 6 5 10 10 10 6 0 10 -4 10
-10z m-3220 -4 c0 -3 -4 -8 -10 -11 -5 -3 -10 -1 -10 4 0 6 5 11 10 11 6 0 10
-2 10 -4z m110 -16 c0 -5 -5 -10 -11 -10 -5 0 -7 5 -4 10 3 6 8 10 11 10 2 0
4 -4 4 -10z m370 0 c0 -5 -4 -10 -10 -10 -5 0 -10 5 -10 10 0 6 5 10 10 10 6
0 10 -4 10 -10z m70 0 c0 -5 -4 -10 -10 -10 -5 0 -10 5 -10 10 0 6 5 10 10 10
6 0 10 -4 10 -10z m-650 -4 c0 -3 -4 -8 -10 -11 -5 -3 -10 -1 -10 4 0 6 5 11
10 11 6 0 10 -2 10 -4z m717 -2 c-3 -3 -12 -4 -19 -1 -8 3 -5 6 6 6 11 1 17
-2 13 -5z m2343 -4 c0 -5 -4 -10 -10 -10 -5 0 -10 5 -10 10 0 6 5 10 10 10 6
0 10 -4 10 -10z m-3010 -4 c0 -3 -4 -8 -10 -11 -5 -3 -10 -1 -10 4 0 6 5 11
10 11 6 0 10 -2 10 -4z m50 -6 c0 -5 -5 -10 -11 -10 -5 0 -7 5 -4 10 3 6 8 10
11 10 2 0 4 -4 4 -10z m2570 0 c0 -5 -4 -10 -10 -10 -5 0 -10 5 -10 10 0 6 5
10 10 10 6 0 10 -4 10 -10z m-4230 -10 c0 -5 -4 -10 -10 -10 -5 0 -10 5 -10
10 0 6 5 10 10 10 6 0 10 -4 10 -10z m1460 0 c0 -5 -4 -10 -10 -10 -5 0 -10 5
-10 10 0 6 5 10 10 10 6 0 10 -4 10 -10z m260 0 c0 -5 -4 -10 -10 -10 -5 0
-10 5 -10 10 0 6 5 10 10 10 6 0 10 -4 10 -10z m430 0 c0 -5 -4 -10 -10 -10
-5 0 -10 5 -10 10 0 6 5 10 10 10 6 0 10 -4 10 -10z m70 0 c0 -5 -4 -10 -10
-10 -5 0 -10 5 -10 10 0 6 5 10 10 10 6 0 10 -4 10 -10z m-710 -4 c0 -3 -4 -8
-10 -11 -5 -3 -10 -1 -10 4 0 6 5 11 10 11 6 0 10 -2 10 -4z m850 0 c0 -3 -4
-8 -10 -11 -5 -3 -10 -1 -10 4 0 6 5 11 10 11 6 0 10 -2 10 -4z m-950 -26 c0
-5 -4 -10 -10 -10 -5 0 -10 5 -10 10 0 6 5 10 10 10 6 0 10 -4 10 -10z m760 6
c0 -3 -4 -8 -10 -11 -5 -3 -10 -1 -10 4 0 6 5 11 10 11 6 0 10 -2 10 -4z m60
-6 c0 -5 -5 -10 -11 -10 -5 0 -7 5 -4 10 3 6 8 10 11 10 2 0 4 -4 4 -10z
m2320 0 c0 -5 -4 -10 -10 -10 -5 0 -10 5 -10 10 0 6 5 10 10 10 6 0 10 -4 10
-10z m-3090 -4 c0 -3 -4 -8 -10 -11 -5 -3 -10 -1 -10 4 0 6 5 11 10 11 6 0 10
-2 10 -4z m50 -6 c0 -5 -5 -10 -11 -10 -5 0 -7 5 -4 10 3 6 8 10 11 10 2 0 4
-4 4 -10z m2885 -40 c10 -16 -4 -11 -35 12 -17 12 -30 26 -30 31 0 9 55 -28
65 -43z m75 40 c0 -5 -4 -10 -10 -10 -5 0 -10 5 -10 10 0 6 5 10 10 10 6 0 10
-4 10 -10z m-2900 -4 c0 -3 -4 -8 -10 -11 -5 -3 -10 -1 -10 4 0 6 5 11 10 11
6 0 10 -2 10 -4z m-200 -10 c0 -3 -4 -8 -10 -11 -5 -3 -10 -1 -10 4 0 6 5 11
10 11 6 0 10 -2 10 -4z m50 -6 c0 -5 -5 -10 -11 -10 -5 0 -7 5 -4 10 3 6 8 10
11 10 2 0 4 -4 4 -10z m760 0 c0 -5 -4 -10 -10 -10 -5 0 -10 5 -10 10 0 6 5
10 10 10 6 0 10 -4 10 -10z m-710 -10 c0 -5 -4 -10 -10 -10 -5 0 -10 5 -10 10
0 6 5 10 10 10 6 0 10 -4 10 -10z m850 6 c0 -3 -4 -8 -10 -11 -5 -3 -10 -1
-10 4 0 6 5 11 10 11 6 0 10 -2 10 -4z m2380 -6 c0 -5 -4 -10 -10 -10 -5 0
-10 5 -10 10 0 6 5 10 10 10 6 0 10 -4 10 -10z m-3180 -4 c0 -3 -4 -8 -10 -11
-5 -3 -10 -1 -10 4 0 6 5 11 10 11 6 0 10 -2 10 -4z m-200 -10 c0 -3 -4 -8
-10 -11 -5 -3 -10 -1 -10 4 0 6 5 11 10 11 6 0 10 -2 10 -4z m50 -6 c0 -5 -5
-10 -11 -10 -5 0 -7 5 -4 10 3 6 8 10 11 10 2 0 4 -4 4 -10z m50 -10 c0 -5 -4
-10 -10 -10 -5 0 -10 5 -10 10 0 6 5 10 10 10 6 0 10 -4 10 -10z m777 4 c-3
-3 -12 -4 -19 -1 -8 3 -5 6 6 6 11 1 17 -2 13 -5z m63 -4 c0 -5 -2 -10 -4 -10
-3 0 -8 5 -11 10 -3 6 -1 10 4 10 6 0 11 -4 11 -10z m2360 0 c0 -5 -4 -10 -10
-10 -5 0 -10 5 -10 10 0 6 5 10 10 10 6 0 10 -4 10 -10z m-3590 -4 c0 -3 -4
-8 -10 -11 -5 -3 -10 -1 -10 4 0 6 5 11 10 11 6 0 10 -2 10 -4z m450 0 c0 -3
-4 -8 -10 -11 -5 -3 -10 -1 -10 4 0 6 5 11 10 11 6 0 10 -2 10 -4z m50 -6 c0
-5 -5 -10 -11 -10 -5 0 -7 5 -4 10 3 6 8 10 11 10 2 0 4 -4 4 -10z m-200 -10
c0 -5 -5 -10 -11 -10 -5 0 -7 5 -4 10 3 6 8 10 11 10 2 0 4 -4 4 -10z m50 -10
c0 -5 -4 -10 -10 -10 -5 0 -10 5 -10 10 0 6 5 10 10 10 6 0 10 -4 10 -10z
m3094 -5 c11 -8 18 -17 15 -19 -2 -3 -15 4 -29 14 -14 11 -20 20 -15 19 6 0
19 -6 29 -14z m316 -6 c0 -5 -4 -9 -10 -9 -5 0 -10 7 -10 16 0 8 5 12 10 9 6
-3 10 -10 10 -16z m-3800 1 c0 -5 -5 -10 -11 -10 -5 0 -7 5 -4 10 3 6 8 10 11
10 2 0 4 -4 4 -10z m440 0 c0 -5 -4 -10 -10 -10 -5 0 -10 5 -10 10 0 6 5 10
10 10 6 0 10 -4 10 -10z m55 0 c3 -5 -1 -10 -10 -10 -9 0 -13 5 -10 10 3 6 8
10 10 10 2 0 7 -4 10 -10z m3165 -10 c0 -5 -4 -10 -9 -10 -6 0 -13 5 -16 10
-3 6 1 10 9 10 9 0 16 -4 16 -10z m-6153 -26 c-9 -9 -28 6 -21 18 4 6 10 6 17
-1 6 -6 8 -13 4 -17z m2843 16 c0 -5 -7 -10 -16 -10 -8 0 -12 5 -9 10 3 6 10
10 16 10 5 0 9 -4 9 -10z m320 0 c0 -5 -4 -10 -10 -10 -5 0 -10 5 -10 10 0 6
5 10 10 10 6 0 10 -4 10 -10z m2903 -26 c-3 -8 3 -21 13 -29 11 -8 14 -15 9
-15 -6 0 -17 6 -24 13 -10 10 -20 4 -48 -28 -30 -34 -34 -36 -28 -15 6 22 2
19 -30 -15 -21 -23 -11 -5 25 43 49 66 64 81 75 72 8 -6 11 -18 8 -26z m-3173
16 c0 -5 -4 -10 -10 -10 -5 0 -10 5 -10 10 0 6 5 10 10 10 6 0 10 -4 10 -10z
m-195 -10 c-3 -5 -11 -10 -16 -10 -6 0 -7 5 -4 10 3 6 11 10 16 10 6 0 7 -4 4
-10z m245 6 c0 -3 -4 -8 -10 -11 -5 -3 -10 -1 -10 4 0 6 5 11 10 11 6 0 10 -2
10 -4z m6533 -11 c1 -5 -6 -11 -15 -13 -11 -2 -18 3 -18 13 0 17 30 18 33 0z
m-7133 -5 c0 -5 -5 -10 -11 -10 -5 0 -7 5 -4 10 3 6 8 10 11 10 2 0 4 -4 4
-10z m180 0 c0 -5 -5 -10 -11 -10 -5 0 -7 5 -4 10 3 6 8 10 11 10 2 0 4 -4 4
-10z m270 0 c0 -5 -5 -10 -11 -10 -5 0 -7 5 -4 10 3 6 8 10 11 10 2 0 4 -4 4
-10z m265 0 c-3 -5 -11 -10 -16 -10 -6 0 -7 5 -4 10 3 6 11 10 16 10 6 0 7 -4
4 -10z m55 0 c0 -5 -5 -10 -11 -10 -5 0 -7 5 -4 10 3 6 8 10 11 10 2 0 4 -4 4
-10z m-540 -4 c0 -3 -4 -8 -10 -11 -5 -3 -10 -1 -10 4 0 6 5 11 10 11 6 0 10
-2 10 -4z m275 -6 c-3 -5 -11 -10 -16 -10 -6 0 -7 5 -4 10 3 6 11 10 16 10 6
0 7 -4 4 -10z m330 0 c-3 -5 -10 -10 -16 -10 -5 0 -9 5 -9 10 0 6 7 10 16 10
8 0 12 -4 9 -10z m-765 -4 c0 -3 -4 -8 -10 -11 -5 -3 -10 -1 -10 4 0 6 5 11
10 11 6 0 10 -2 10 -4z m490 0 c0 -3 -4 -8 -10 -11 -5 -3 -10 -1 -10 4 0 6 5
11 10 11 6 0 10 -2 10 -4z m-450 -10 c0 -3 -4 -8 -10 -11 -5 -3 -10 -1 -10 4
0 6 5 11 10 11 6 0 10 -2 10 -4z m250 -6 c0 -5 -4 -10 -10 -10 -5 0 -10 5 -10
10 0 6 5 10 10 10 6 0 10 -4 10 -10z m310 0 c0 -5 -4 -10 -10 -10 -5 0 -10 5
-10 10 0 6 5 10 10 10 6 0 10 -4 10 -10z m-523 -6 c-3 -3 -12 -4 -19 -1 -8 3
-5 6 6 6 11 1 17 -2 13 -5z m43 -4 c0 -5 -4 -10 -10 -10 -5 0 -10 5 -10 10 0
6 5 10 10 10 6 0 10 -4 10 -10z m220 0 c0 -5 -4 -10 -10 -10 -5 0 -10 5 -10
10 0 6 5 10 10 10 6 0 10 -4 10 -10z m50 0 c0 -5 -5 -10 -11 -10 -5 0 -7 5 -4
10 3 6 8 10 11 10 2 0 4 -4 4 -10z m270 6 c0 -3 -4 -8 -10 -11 -5 -3 -10 -1
-10 4 0 6 5 11 10 11 6 0 10 -2 10 -4z m60 -6 c0 -5 -4 -10 -10 -10 -5 0 -10
5 -10 10 0 6 5 10 10 10 6 0 10 -4 10 -10z m1860 0 c0 -5 -2 -10 -4 -10 -3 0
-8 5 -11 10 -3 6 -1 10 4 10 6 0 11 -4 11 -10z m-2620 -10 c0 -5 -5 -10 -11
-10 -5 0 -7 5 -4 10 3 6 8 10 11 10 2 0 4 -4 4 -10z m490 0 c0 -5 -7 -10 -16
-10 -8 0 -12 5 -9 10 3 6 10 10 16 10 5 0 9 -4 9 -10z m-450 -4 c0 -3 -4 -8
-10 -11 -5 -3 -10 -1 -10 4 0 6 5 11 10 11 6 0 10 -2 10 -4z m250 -6 c0 -5 -5
-10 -11 -10 -5 0 -7 5 -4 10 3 6 8 10 11 10 2 0 4 -4 4 -10z m310 0 c0 -5 -5
-10 -11 -10 -5 0 -7 5 -4 10 3 6 8 10 11 10 2 0 4 -4 4 -10z m3182 -32 c10
-10 15 -18 11 -18 -11 0 -63 46 -63 55 0 8 21 -8 52 -37z m-3882 28 c0 -3 -4
-8 -10 -11 -5 -3 -10 -1 -10 4 0 6 5 11 10 11 6 0 10 -2 10 -4z m180 0 c0 -3
-4 -8 -10 -11 -5 -3 -10 -1 -10 4 0 6 5 11 10 11 6 0 10 -2 10 -4z m260 -6 c0
-5 -4 -10 -10 -10 -5 0 -10 5 -10 10 0 6 5 10 10 10 6 0 10 -4 10 -10z m315 0
c-3 -5 -11 -10 -16 -10 -6 0 -7 5 -4 10 3 6 11 10 16 10 6 0 7 -4 4 -10z
m6280 1 c7 -12 -12 -24 -25 -16 -11 7 -4 25 10 25 5 0 11 -4 15 -9z m-7005 -5
c0 -3 -4 -8 -10 -11 -5 -3 -10 -1 -10 4 0 6 5 11 10 11 6 0 10 -2 10 -4z m190
0 c0 -3 -4 -8 -10 -11 -5 -3 -10 -1 -10 4 0 6 5 11 10 11 6 0 10 -2 10 -4z
m40 -6 c0 -5 -5 -10 -11 -10 -5 0 -7 5 -4 10 3 6 8 10 11 10 2 0 4 -4 4 -10z
m230 0 c0 -5 -4 -10 -10 -10 -5 0 -10 5 -10 10 0 6 5 10 10 10 6 0 10 -4 10
-10z m327 4 c-3 -3 -12 -4 -19 -1 -8 3 -5 6 6 6 11 1 17 -2 13 -5z m63 2 c0
-3 -4 -8 -10 -11 -5 -3 -10 -1 -10 4 0 6 5 11 10 11 6 0 10 -2 10 -4z m-820
-16 c0 -5 -5 -10 -11 -10 -5 0 -7 5 -4 10 3 6 8 10 11 10 2 0 4 -4 4 -10z m40
0 c0 -5 -5 -10 -11 -10 -5 0 -7 5 -4 10 3 6 8 10 11 10 2 0 4 -4 4 -10z m447
4 c-3 -3 -12 -4 -19 -1 -8 3 -5 6 6 6 11 1 17 -2 13 -5z m-617 -8 c0 -3 -4 -8
-10 -11 -5 -3 -10 -1 -10 4 0 6 5 11 10 11 6 0 10 -2 10 -4z m210 -6 c0 -5 -5
-10 -11 -10 -5 0 -7 5 -4 10 3 6 8 10 11 10 2 0 4 -4 4 -10z m215 0 c-3 -5
-10 -10 -16 -10 -5 0 -9 5 -9 10 0 6 7 10 16 10 8 0 12 -4 9 -10z m300 0 c-3
-5 -11 -10 -16 -10 -6 0 -7 5 -4 10 3 6 11 10 16 10 6 0 7 -4 4 -10z m55 0 c0
-5 -5 -10 -11 -10 -5 0 -7 5 -4 10 3 6 8 10 11 10 2 0 4 -4 4 -10z m-530 -10
c0 -5 -4 -10 -10 -10 -5 0 -10 5 -10 10 0 6 5 10 10 10 6 0 10 -4 10 -10z
m220 6 c0 -3 -4 -8 -10 -11 -5 -3 -10 -1 -10 4 0 6 5 11 10 11 6 0 10 -2 10
-4z m50 -6 c0 -5 -5 -10 -11 -10 -5 0 -7 5 -4 10 3 6 8 10 11 10 2 0 4 -4 4
-10z m320 0 c0 -5 -4 -10 -10 -10 -5 0 -10 5 -10 10 0 6 5 10 10 10 6 0 10 -4
10 -10z m-740 -10 c0 -5 -5 -10 -11 -10 -5 0 -7 5 -4 10 3 6 8 10 11 10 2 0 4
-4 4 -10z m195 0 c-3 -5 -10 -10 -16 -10 -5 0 -9 5 -9 10 0 6 7 10 16 10 8 0
12 -4 9 -10z m280 0 c-3 -5 -11 -10 -16 -10 -6 0 -7 5 -4 10 3 6 11 10 16 10
6 0 7 -4 4 -10z m390 0 c-3 -5 -11 -10 -16 -10 -6 0 -7 5 -4 10 3 6 11 10 16
10 6 0 7 -4 4 -10z m-830 -10 c-3 -5 -11 -10 -16 -10 -6 0 -7 5 -4 10 3 6 11
10 16 10 6 0 7 -4 4 -10z m205 6 c0 -3 -4 -8 -10 -11 -5 -3 -10 -1 -10 4 0 6
5 11 10 11 6 0 10 -2 10 -4z m50 -6 c0 -5 -7 -10 -16 -10 -8 0 -12 5 -9 10 3
6 10 10 16 10 5 0 9 -4 9 -10z m295 0 c-3 -5 -11 -10 -16 -10 -6 0 -7 5 -4 10
3 6 11 10 16 10 6 0 7 -4 4 -10z m-515 -10 c0 -5 -4 -10 -10 -10 -5 0 -10 5
-10 10 0 6 5 10 10 10 6 0 10 -4 10 -10z m265 0 c-3 -5 -11 -10 -16 -10 -6 0
-7 5 -4 10 3 6 11 10 16 10 6 0 7 -4 4 -10z m305 0 c0 -5 -4 -10 -10 -10 -5 0
-10 5 -10 10 0 6 5 10 10 10 6 0 10 -4 10 -10z m60 0 c0 -5 -5 -10 -11 -10 -5
0 -7 5 -4 10 3 6 8 10 11 10 2 0 4 -4 4 -10z m2911 -3 c-6 -8 -8 -17 -4 -20 3
-4 1 -7 -5 -7 -15 0 -15 13 0 28 16 16 23 15 9 -1z m-3681 -1 c0 -3 -4 -8 -10
-11 -5 -3 -10 -1 -10 4 0 6 5 11 10 11 6 0 10 -2 10 -4z m180 -6 c0 -5 -4 -10
-10 -10 -5 0 -10 5 -10 10 0 6 5 10 10 10 6 0 10 -4 10 -10z m50 0 c0 -5 -5
-10 -11 -10 -5 0 -7 5 -4 10 3 6 8 10 11 10 2 0 4 -4 4 -10z m225 0 c-3 -5
-10 -10 -16 -10 -5 0 -9 5 -9 10 0 6 7 10 16 10 8 0 12 -4 9 -10z m375 0 c0
-5 -4 -10 -10 -10 -5 0 -10 5 -10 10 0 6 5 10 10 10 6 0 10 -4 10 -10z m3669
-6 c60 -17 123 -70 152 -125 25 -51 25 -148 -1 -223 -20 -58 -91 -198 -97
-192 -2 2 14 37 36 77 57 109 74 168 69 249 -5 91 -39 142 -123 185 -53 27
-70 30 -184 36 l-126 6 111 1 c75 1 127 -3 163 -14z m-4469 -4 c0 -5 -4 -10
-10 -10 -5 0 -10 5 -10 10 0 6 5 10 10 10 6 0 10 -4 10 -10z m240 0 c0 -5 -5
-10 -11 -10 -5 0 -7 5 -4 10 3 6 8 10 11 10 2 0 4 -4 4 -10z m685 0 c-3 -5
-11 -10 -16 -10 -6 0 -7 5 -4 10 3 6 11 10 16 10 6 0 7 -4 4 -10z m-885 -4 c0
-3 -4 -8 -10 -11 -5 -3 -10 -1 -10 4 0 6 5 11 10 11 6 0 10 -2 10 -4z m32 -18
c-7 -7 -12 -8 -12 -2 0 6 3 14 7 17 3 4 9 5 12 2 2 -3 -1 -11 -7 -17z m218 18
c0 -3 -4 -8 -10 -11 -5 -3 -10 -1 -10 4 0 6 5 11 10 11 6 0 10 -2 10 -4z m295
-6 c-3 -5 -11 -10 -16 -10 -6 0 -7 5 -4 10 3 6 11 10 16 10 6 0 7 -4 4 -10z
m55 0 c0 -5 -5 -10 -11 -10 -5 0 -7 5 -4 10 3 6 8 10 11 10 2 0 4 -4 4 -10z
m350 6 c0 -3 -4 -8 -10 -11 -5 -3 -10 -1 -10 4 0 6 5 11 10 11 6 0 10 -2 10
-4z m-1090 -10 c0 -3 -4 -8 -10 -11 -5 -3 -10 -1 -10 4 0 6 5 11 10 11 6 0 10
-2 10 -4z m220 -6 c0 -5 -4 -10 -10 -10 -5 0 -10 5 -10 10 0 6 5 10 10 10 6 0
10 -4 10 -10z m220 6 c0 -3 -4 -8 -10 -11 -5 -3 -10 -1 -10 4 0 6 5 11 10 11
6 0 10 -2 10 -4z m50 -6 c0 -5 -7 -10 -16 -10 -8 0 -12 5 -9 10 3 6 10 10 16
10 5 0 9 -4 9 -10z m310 0 c0 -5 -4 -10 -10 -10 -5 0 -10 5 -10 10 0 6 5 10
10 10 6 0 10 -4 10 -10z m-770 -4 c0 -3 -4 -8 -10 -11 -5 -3 -10 -1 -10 4 0 6
5 11 10 11 6 0 10 -2 10 -4z m230 -6 c0 -5 -4 -10 -10 -10 -5 0 -10 5 -10 10
0 6 5 10 10 10 6 0 10 -4 10 -10z m280 0 c0 -5 -4 -10 -10 -10 -5 0 -10 5 -10
10 0 6 5 10 10 10 6 0 10 -4 10 -10z m320 6 c0 -3 -4 -8 -10 -11 -5 -3 -10 -1
-10 4 0 6 5 11 10 11 6 0 10 -2 10 -4z m60 -6 c0 -5 -5 -10 -11 -10 -5 0 -7 5
-4 10 3 6 8 10 11 10 2 0 4 -4 4 -10z m-1959 -33 c-8 -8 -11 -7 -11 4 0 20 13
34 18 19 3 -7 -1 -17 -7 -23z m1109 29 c0 -3 -4 -8 -10 -11 -5 -3 -10 -1 -10
4 0 6 5 11 10 11 6 0 10 -2 10 -4z m50 -6 c0 -5 -9 -10 -21 -10 -11 0 -17 5
-14 10 3 6 13 10 21 10 8 0 14 -4 14 -10z m185 0 c-3 -5 -11 -10 -16 -10 -6 0
-7 5 -4 10 3 6 11 10 16 10 6 0 7 -4 4 -10z m345 0 c0 -5 -5 -10 -11 -10 -5 0
-7 5 -4 10 3 6 8 10 11 10 2 0 4 -4 4 -10z m340 6 c0 -11 -19 -15 -25 -6 -3 5
1 10 9 10 9 0 16 -2 16 -4z m60 -6 c0 -5 -4 -10 -10 -10 -5 0 -10 5 -10 10 0
6 5 10 10 10 6 0 10 -4 10 -10z m-930 -40 c-30 -30 -36 -19 -8 13 13 14 24 22
26 17 2 -5 -6 -18 -18 -30z m230 36 c0 -3 -4 -8 -10 -11 -5 -3 -10 -1 -10 4 0
6 5 11 10 11 6 0 10 -2 10 -4z m50 -6 c0 -5 -5 -10 -11 -10 -5 0 -7 5 -4 10 3
6 8 10 11 10 2 0 4 -4 4 -10z m300 0 c0 -5 -5 -10 -11 -10 -5 0 -7 5 -4 10 3
6 8 10 11 10 2 0 4 -4 4 -10z m2425 0 c3 -5 1 -10 -4 -10 -6 0 -11 5 -11 10 0
6 2 10 4 10 3 0 8 -4 11 -10z m-2945 -10 c0 -5 -5 -10 -11 -10 -5 0 -7 5 -4
10 3 6 8 10 11 10 2 0 4 -4 4 -10z m270 0 c0 -5 -4 -10 -10 -10 -5 0 -10 5
-10 10 0 6 5 10 10 10 6 0 10 -4 10 -10z m310 0 c0 -5 -4 -10 -10 -10 -5 0
-10 5 -10 10 0 6 5 10 10 10 6 0 10 -4 10 -10z m60 0 c0 -5 -5 -10 -11 -10 -5
0 -7 5 -4 10 3 6 8 10 11 10 2 0 4 -4 4 -10z m2190 0 c0 -5 -2 -10 -4 -10 -3
0 -8 5 -11 10 -3 6 -1 10 4 10 6 0 11 -4 11 -10z m395 0 c3 -5 1 -10 -4 -10
-6 0 -11 5 -11 10 0 6 2 10 4 10 3 0 8 -4 11 -10z m-3375 -10 c0 -5 -5 -10
-11 -10 -5 0 -7 5 -4 10 3 6 8 10 11 10 2 0 4 -4 4 -10z m195 0 c-3 -5 -11
-10 -16 -10 -6 0 -7 5 -4 10 3 6 11 10 16 10 6 0 7 -4 4 -10z m275 0 c0 -5 -4
-10 -10 -10 -5 0 -10 5 -10 10 0 6 5 10 10 10 6 0 10 -4 10 -10z m380 0 c0 -5
-4 -10 -10 -10 -5 0 -10 5 -10 10 0 6 5 10 10 10 6 0 10 -4 10 -10z m65 0 c3
-5 -1 -10 -10 -10 -9 0 -13 5 -10 10 3 6 8 10 10 10 2 0 7 -4 10 -10z m1820 0
c3 -5 1 -10 -4 -10 -6 0 -11 5 -11 10 0 6 2 10 4 10 3 0 8 -4 11 -10z m65 0
c0 -5 -2 -10 -4 -10 -3 0 -8 5 -11 10 -3 6 -1 10 4 10 6 0 11 -4 11 -10z
m-2760 -10 c0 -5 -5 -10 -11 -10 -5 0 -7 5 -4 10 3 6 8 10 11 10 2 0 4 -4 4
-10z m200 6 c0 -3 -4 -8 -10 -11 -5 -3 -10 -1 -10 4 0 6 5 11 10 11 6 0 10 -2
10 -4z m50 -6 c0 -5 -4 -10 -10 -10 -5 0 -10 5 -10 10 0 6 5 10 10 10 6 0 10
-4 10 -10z m290 0 c0 -5 -4 -10 -10 -10 -5 0 -10 5 -10 10 0 6 5 10 10 10 6 0
10 -4 10 -10z m400 0 c0 -5 -4 -10 -10 -10 -5 0 -10 5 -10 10 0 6 5 10 10 10
6 0 10 -4 10 -10z m60 0 c0 -5 -5 -10 -11 -10 -5 0 -7 5 -4 10 3 6 8 10 11 10
2 0 4 -4 4 -10z m-910 -9 c0 -14 -18 -23 -31 -15 -8 4 -7 9 2 15 18 11 29 11
29 0z m205 -1 c-3 -5 -11 -10 -16 -10 -6 0 -7 5 -4 10 3 6 11 10 16 10 6 0 7
-4 4 -10z m300 0 c-3 -5 -11 -10 -16 -10 -6 0 -7 5 -4 10 3 6 11 10 16 10 6 0
7 -4 4 -10z m60 0 c3 -5 -1 -10 -10 -10 -9 0 -13 5 -10 10 3 6 8 10 10 10 2 0
7 -4 10 -10z m2805 0 c0 -5 -4 -10 -9 -10 -6 0 -13 5 -16 10 -3 6 1 10 9 10 9
0 16 -4 16 -10z m220 -11 c0 -6 -4 -7 -10 -4 -5 3 -10 11 -10 16 0 6 5 7 10 4
6 -3 10 -11 10 -16z m-3335 1 c-3 -5 -11 -10 -16 -10 -6 0 -7 5 -4 10 3 6 11
10 16 10 6 0 7 -4 4 -10z m365 0 c0 -5 -5 -10 -11 -10 -5 0 -7 5 -4 10 3 6 8
10 11 10 2 0 4 -4 4 -10z m-1890 -6 c0 -15 -22 -44 -30 -39 -6 4 -5 14 3 25
11 19 27 27 27 14z m1110 -4 c0 -5 -5 -10 -11 -10 -5 0 -7 5 -4 10 3 6 8 10
11 10 2 0 4 -4 4 -10z m190 0 c0 -5 -4 -10 -10 -10 -5 0 -10 5 -10 10 0 6 5
10 10 10 6 0 10 -4 10 -10z m50 0 c0 -5 -7 -10 -16 -10 -8 0 -12 5 -9 10 3 6
10 10 16 10 5 0 9 -4 9 -10z m230 6 c0 -11 -19 -15 -25 -6 -3 5 1 10 9 10 9 0
16 -2 16 -4z m380 0 c0 -11 -19 -15 -25 -6 -3 5 1 10 9 10 9 0 16 -2 16 -4z
m60 -6 c0 -5 -7 -10 -16 -10 -8 0 -12 5 -9 10 3 6 10 10 16 10 5 0 9 -4 9 -10z
m-630 -10 c0 -5 -5 -10 -11 -10 -5 0 -7 5 -4 10 3 6 8 10 11 10 2 0 4 -4 4
-10z m295 0 c-3 -5 -11 -10 -16 -10 -6 0 -7 5 -4 10 3 6 11 10 16 10 6 0 7 -4
4 -10z m-245 -10 c0 -5 -4 -10 -10 -10 -5 0 -10 5 -10 10 0 6 5 10 10 10 6 0
10 -4 10 -10z m300 6 c0 -3 -4 -8 -10 -11 -5 -3 -10 -1 -10 4 0 6 5 11 10 11
6 0 10 -2 10 -4z m-515 -16 c-3 -5 -11 -10 -16 -10 -6 0 -7 5 -4 10 3 6 11 10
16 10 6 0 7 -4 4 -10z m37 -12 c-7 -7 -12 -8 -12 -2 0 6 3 14 7 17 3 4 9 5 12
2 2 -3 -1 -11 -7 -17z m228 18 c0 -3 -4 -8 -10 -11 -5 -3 -10 -1 -10 4 0 6 5
11 10 11 6 0 10 -2 10 -4z m50 -6 c0 -5 -5 -10 -11 -10 -5 0 -7 5 -4 10 3 6 8
10 11 10 2 0 4 -4 4 -10z m3035 0 c3 -5 1 -10 -4 -10 -6 0 -11 5 -11 10 0 6 2
10 4 10 3 0 8 -4 11 -10z m-3215 -20 c0 -5 -4 -10 -10 -10 -5 0 -10 5 -10 10
0 6 5 10 10 10 6 0 10 -4 10 -10z m745 0 c-3 -5 -11 -10 -16 -10 -6 0 -7 5 -4
10 3 6 11 10 16 10 6 0 7 -4 4 -10z m2265 0 c0 -5 -4 -10 -10 -10 -5 0 -10 5
-10 10 0 6 5 10 10 10 6 0 10 -4 10 -10z m-2960 -4 c0 -3 -4 -8 -10 -11 -5 -3
-10 -1 -10 4 0 6 5 11 10 11 6 0 10 -2 10 -4z m-210 -10 c0 -11 -19 -15 -25
-6 -3 5 1 10 9 10 9 0 16 -2 16 -4z m40 -6 c0 -5 -5 -10 -11 -10 -5 0 -7 5 -4
10 3 6 8 10 11 10 2 0 4 -4 4 -10z m220 6 c0 -3 -4 -8 -10 -11 -5 -3 -10 -1
-10 4 0 6 5 11 10 11 6 0 10 -2 10 -4z m50 -6 c0 -5 -4 -10 -10 -10 -5 0 -10
5 -10 10 0 6 5 10 10 10 6 0 10 -4 10 -10z m310 0 c0 -5 -4 -10 -10 -10 -5 0
-10 5 -10 10 0 6 5 10 10 10 6 0 10 -4 10 -10z m2740 -5 c10 -12 10 -15 -4
-15 -9 0 -16 7 -16 15 0 8 2 15 4 15 2 0 9 -7 16 -15z m-3280 -5 c0 -5 -5 -10
-11 -10 -5 0 -7 5 -4 10 3 6 8 10 11 10 2 0 4 -4 4 -10z m390 -10 c0 -5 -5
-10 -11 -10 -5 0 -7 5 -4 10 3 6 8 10 11 10 2 0 4 -4 4 -10z m400 0 c0 -5 -4
-10 -10 -10 -5 0 -10 5 -10 10 0 6 5 10 10 10 6 0 10 -4 10 -10z m-340 -10 c0
-5 -4 -10 -10 -10 -5 0 -10 5 -10 10 0 6 5 10 10 10 6 0 10 -4 10 -10z m470 0
c0 -5 -4 -10 -10 -10 -5 0 -10 5 -10 10 0 6 5 10 10 10 6 0 10 -4 10 -10z
m2035 0 c3 -5 1 -10 -4 -10 -6 0 -11 5 -11 10 0 6 2 10 4 10 3 0 8 -4 11 -10z
m-3255 -10 c0 -5 -5 -10 -11 -10 -5 0 -7 5 -4 10 3 6 8 10 11 10 2 0 4 -4 4
-10z m447 4 c-3 -3 -12 -4 -19 -1 -8 3 -5 6 6 6 11 1 17 -2 13 -5z m48 -4 c-3
-5 -11 -10 -16 -10 -6 0 -7 5 -4 10 3 6 11 10 16 10 6 0 7 -4 4 -10z m315 6
c0 -3 -4 -8 -10 -11 -5 -3 -10 -1 -10 4 0 6 5 11 10 11 6 0 10 -2 10 -4z
m-770 -10 c0 -3 -4 -8 -10 -11 -5 -3 -10 -1 -10 4 0 6 5 11 10 11 6 0 10 -2
10 -4z m510 0 c0 -3 -4 -8 -10 -11 -5 -3 -10 -1 -10 4 0 6 5 11 10 11 6 0 10
-2 10 -4z m-480 -16 c0 -5 -5 -10 -11 -10 -5 0 -7 5 -4 10 3 6 8 10 11 10 2 0
4 -4 4 -10z m590 0 c0 -5 -4 -10 -10 -10 -5 0 -10 5 -10 10 0 6 5 10 10 10 6
0 10 -4 10 -10z m390 0 c0 -5 -4 -10 -10 -10 -5 0 -10 5 -10 10 0 6 5 10 10
10 6 0 10 -4 10 -10z m-335 -10 c-3 -5 -11 -10 -16 -10 -6 0 -7 5 -4 10 3 6
11 10 16 10 6 0 7 -4 4 -10z m465 0 c0 -5 -4 -10 -10 -10 -5 0 -10 5 -10 10 0
6 5 10 10 10 6 0 10 -4 10 -10z m70 0 c0 -5 -5 -10 -11 -10 -5 0 -7 5 -4 10 3
6 8 10 11 10 2 0 4 -4 4 -10z m-790 -10 c0 -5 -5 -10 -11 -10 -5 0 -7 5 -4 10
3 6 8 10 11 10 2 0 4 -4 4 -10z m310 0 c0 -5 -2 -10 -4 -10 -3 0 -8 5 -11 10
-3 6 -1 10 4 10 6 0 11 -4 11 -10z m2460 0 c0 -5 -2 -10 -4 -10 -3 0 -8 5 -11
10 -3 6 -1 10 4 10 6 0 11 -4 11 -10z m-3220 -10 c0 -5 -4 -10 -10 -10 -5 0
-10 5 -10 10 0 6 5 10 10 10 6 0 10 -4 10 -10z m510 6 c0 -3 -4 -8 -10 -11 -5
-3 -10 -1 -10 4 0 6 5 11 10 11 6 0 10 -2 10 -4z m4427 -63 c-2 -16 -4 -5 -4
22 0 28 2 40 4 28 2 -13 2 -35 0 -50z m-4657 48 c0 -5 -7 -11 -15 -15 -15 -5
-20 5 -8 17 9 10 23 9 23 -2z m335 -1 c3 -5 -1 -10 -10 -10 -9 0 -13 5 -10 10
3 6 8 10 10 10 2 0 7 -4 10 -10z m-1790 -10 c-143 -11 -208 -40 -245 -108 -10
-20 -19 -30 -20 -21 0 31 68 97 118 113 71 22 81 24 162 23 l75 0 -90 -7z
m1250 0 c-3 -5 -15 -10 -26 -10 -10 0 -19 5 -19 10 0 6 12 10 26 10 14 0 23
-4 19 -10z m245 0 c0 -5 -5 -10 -11 -10 -5 0 -7 5 -4 10 3 6 8 10 11 10 2 0 4
-4 4 -10z m350 0 c0 -5 -5 -10 -11 -10 -5 0 -7 5 -4 10 3 6 8 10 11 10 2 0 4
-4 4 -10z m-1692 -7 c-10 -2 -28 -2 -40 0 -13 2 -5 4 17 4 22 1 32 -1 23 -4z
m1752 -3 c0 -5 -4 -10 -10 -10 -5 0 -10 5 -10 10 0 6 5 10 10 10 6 0 10 -4 10
-10z m477 4 c-3 -3 -12 -4 -19 -1 -8 3 -5 6 6 6 11 1 17 -2 13 -5z m4556 -9
c1 -5 -6 -11 -15 -13 -11 -2 -18 3 -18 13 0 17 30 18 33 0z m-6683 -6 c28 -6
50 -13 47 -15 -2 -2 -33 2 -68 10 -35 8 -56 14 -47 15 9 1 40 -4 68 -10z m882
-11 c-7 -7 -12 -8 -12 -2 0 6 3 14 7 17 3 4 9 5 12 2 2 -3 -1 -11 -7 -17z
m230 0 c-7 -7 -12 -8 -12 -2 0 6 3 14 7 17 3 4 9 5 12 2 2 -3 -1 -11 -7 -17z
m58 2 c0 -5 -4 -10 -10 -10 -5 0 -10 5 -10 10 0 6 5 10 10 10 6 0 10 -4 10
-10z m-1410 -10 c0 -5 -5 -10 -11 -10 -5 0 -7 5 -4 10 3 6 8 10 11 10 2 0 4
-4 4 -10z m1205 0 c-3 -5 -11 -10 -16 -10 -6 0 -7 5 -4 10 3 6 11 10 16 10 6
0 7 -4 4 -10z m255 0 c0 -5 -7 -10 -15 -10 -8 0 -15 5 -15 10 0 6 7 10 15 10
8 0 15 -4 15 -10z m290 6 c0 -3 -4 -8 -10 -11 -5 -3 -10 -1 -10 4 0 6 5 11 10
11 6 0 10 -2 10 -4z m50 -6 c0 -5 -5 -10 -11 -10 -5 0 -7 5 -4 10 3 6 8 10 11
10 2 0 4 -4 4 -10z m-1450 -10 c11 -8 7 -9 -15 -4 -37 8 -45 14 -19 14 10 0
26 -5 34 -10z m900 0 c0 -5 -7 -10 -16 -10 -8 0 -12 5 -9 10 3 6 10 10 16 10
5 0 9 -4 9 -10z m255 0 c-3 -5 -10 -10 -16 -10 -5 0 -9 5 -9 10 0 6 7 10 16
10 8 0 12 -4 9 -10z m355 0 c0 -5 -4 -10 -10 -10 -5 0 -10 5 -10 10 0 6 5 10
10 10 6 0 10 -4 10 -10z m-305 -10 c-3 -5 -11 -10 -16 -10 -6 0 -7 5 -4 10 3
6 11 10 16 10 6 0 7 -4 4 -10z m365 6 c0 -3 -4 -8 -10 -11 -5 -3 -10 -1 -10 4
0 6 5 11 10 11 6 0 10 -2 10 -4z m60 -6 c0 -5 -4 -10 -10 -10 -5 0 -10 5 -10
10 0 6 5 10 10 10 6 0 10 -4 10 -10z m-4370 -20 c0 -5 -4 -10 -10 -10 -5 0
-10 5 -10 10 0 6 5 10 10 10 6 0 10 -4 10 -10z m3562 -12 c-7 -7 -12 -8 -12
-2 0 6 3 14 7 17 3 4 9 5 12 2 2 -3 -1 -11 -7 -17z m548 18 c0 -3 -4 -8 -10
-11 -5 -3 -10 -1 -10 4 0 6 5 11 10 11 6 0 10 -2 10 -4z m50 -6 c0 -5 -5 -10
-11 -10 -5 0 -7 5 -4 10 3 6 8 10 11 10 2 0 4 -4 4 -10z m-558 -22 c-7 -7 -12
-8 -12 -2 0 6 3 14 7 17 3 4 9 5 12 2 2 -3 -1 -11 -7 -17z m268 12 c0 -5 -4
-10 -10 -10 -5 0 -10 5 -10 10 0 6 5 10 10 10 6 0 10 -4 10 -10z m350 0 c0 -5
-5 -10 -11 -10 -5 0 -7 5 -4 10 3 6 8 10 11 10 2 0 4 -4 4 -10z m4277 -232
c-1 -46 -3 -9 -3 82 0 91 2 128 3 83 2 -46 2 -120 0 -165z m-4842 222 c-3 -5
-11 -10 -16 -10 -6 0 -7 5 -4 10 3 6 11 10 16 10 6 0 7 -4 4 -10z m265 0 c0
-5 -7 -10 -16 -10 -8 0 -12 5 -9 10 3 6 10 10 16 10 5 0 9 -4 9 -10z m360 0
c0 -5 -4 -10 -10 -10 -5 0 -10 5 -10 10 0 6 5 10 10 10 6 0 10 -4 10 -10z
m-310 -4 c0 -3 -4 -8 -10 -11 -5 -3 -10 -1 -10 4 0 6 5 11 10 11 6 0 10 -2 10
-4z m-180 -26 c0 -5 -4 -10 -10 -10 -5 0 -10 5 -10 10 0 6 5 10 10 10 6 0 10
-4 10 -10z m42 -12 c-7 -7 -12 -8 -12 -2 0 6 3 14 7 17 3 4 9 5 12 2 2 -3 -1
-11 -7 -17z m-252 2 c0 -5 -5 -10 -11 -10 -5 0 -7 5 -4 10 3 6 8 10 11 10 2 0
4 -4 4 -10z m310 0 c0 -5 -5 -10 -11 -10 -5 0 -7 5 -4 10 3 6 8 10 11 10 2 0
4 -4 4 -10z m-260 -4 c0 -3 -4 -8 -10 -11 -5 -3 -10 -1 -10 4 0 6 5 11 10 11
6 0 10 -2 10 -4z m32 -18 c-7 -7 -12 -8 -12 -2 0 6 3 14 7 17 3 4 9 5 12 2 2
-3 -1 -11 -7 -17z m283 12 c-3 -5 -10 -10 -16 -10 -5 0 -9 5 -9 10 0 6 7 10
16 10 8 0 12 -4 9 -10z m-1838 -47 c-3 -10 -5 -2 -5 17 0 19 2 27 5 18 2 -10
2 -26 0 -35z m1613 37 c0 -5 -4 -10 -10 -10 -5 0 -10 5 -10 10 0 6 5 10 10 10
6 0 10 -4 10 -10z m50 -9 c0 -5 -7 -11 -15 -15 -15 -5 -20 5 -8 17 9 10 23 9
23 -2z m-430 -11 c0 -5 -5 -10 -11 -10 -5 0 -7 5 -4 10 3 6 8 10 11 10 2 0 4
-4 4 -10z m475 0 c-3 -5 -11 -10 -16 -10 -6 0 -7 5 -4 10 3 6 11 10 16 10 6 0
7 -4 4 -10z m-435 -10 c0 -5 -5 -10 -11 -10 -5 0 -7 5 -4 10 3 6 8 10 11 10 2
0 4 -4 4 -10z m490 6 c0 -3 -4 -8 -10 -11 -5 -3 -10 -1 -10 4 0 6 5 11 10 11
6 0 10 -2 10 -4z m42 -18 c-7 -7 -12 -8 -12 -2 0 6 3 14 7 17 3 4 9 5 12 2 2
-3 -1 -11 -7 -17z m4528 12 c0 -5 -4 -10 -10 -10 -5 0 -10 5 -10 10 0 6 5 10
10 10 6 0 10 -4 10 -10z m-4790 -4 c0 -3 -4 -8 -10 -11 -5 -3 -10 -1 -10 4 0
6 5 11 10 11 6 0 10 -2 10 -4z m3060 -6 c0 -5 -2 -10 -4 -10 -3 0 -8 5 -11 10
-3 6 -1 10 4 10 6 0 11 -4 11 -10z m-3020 -10 c0 -5 -5 -10 -11 -10 -5 0 -7 5
-4 10 3 6 8 10 11 10 2 0 4 -4 4 -10z m50 -4 c0 -3 -4 -8 -10 -11 -5 -3 -10
-1 -10 4 0 6 5 11 10 11 6 0 10 -2 10 -4z m46 -23 c-10 -10 -19 5 -10 18 6 11
8 11 12 0 2 -7 1 -15 -2 -18z m-1679 -35 c-2 -13 -4 -5 -4 17 -1 22 1 32 4 23
2 -10 2 -28 0 -40z m1725 30 c-7 -7 -12 -8 -12 -2 0 6 3 14 7 17 3 4 9 5 12 2
2 -3 -1 -11 -7 -17z m4358 2 c0 -4 -6 -13 -14 -19 -10 -9 -16 -7 -27 5 -10 13
-10 17 1 24 14 9 40 3 40 -10z m-4980 6 c0 -2 -8 -10 -17 -17 -16 -13 -17 -12
-4 4 13 16 21 21 21 13z m150 0 c0 -3 -4 -8 -10 -11 -5 -3 -10 -1 -10 4 0 6 5
11 10 11 6 0 10 -2 10 -4z m535 -6 c-3 -5 -11 -10 -16 -10 -6 0 -7 5 -4 10 3
6 11 10 16 10 6 0 7 -4 4 -10z m-505 -10 c0 -5 -4 -10 -10 -10 -5 0 -10 5 -10
10 0 6 5 10 10 10 6 0 10 -4 10 -10z m276 -17 c-10 -10 -19 5 -10 18 6 11 8
11 12 0 2 -7 1 -15 -2 -18z m-236 13 c0 -3 -4 -8 -10 -11 -5 -3 -10 -1 -10 4
0 6 5 11 10 11 6 0 10 -2 10 -4z m32 -18 c-7 -7 -12 -8 -12 -2 0 6 3 14 7 17
3 4 9 5 12 2 2 -3 -1 -11 -7 -17z m258 12 c0 -5 -5 -10 -11 -10 -5 0 -7 5 -4
10 3 6 8 10 11 10 2 0 4 -4 4 -10z m50 -10 c0 -5 -4 -10 -10 -10 -5 0 -10 5
-10 10 0 6 5 10 10 10 6 0 10 -4 10 -10z m42 -12 c-7 -7 -12 -8 -12 -2 0 6 3
14 7 17 3 4 9 5 12 2 2 -3 -1 -11 -7 -17z m4478 15 c0 -12 -47 -53 -52 -47 -3
3 4 16 16 29 21 25 36 32 36 18z m-4964 -30 c-10 -10 -19 5 -10 18 6 11 8 11
12 0 2 -7 1 -15 -2 -18z m234 17 c0 -5 -5 -10 -11 -10 -5 0 -7 5 -4 10 3 6 8
10 11 10 2 0 4 -4 4 -10z m-380 -10 c0 -5 -5 -10 -11 -10 -5 0 -7 5 -4 10 3 6
8 10 11 10 2 0 4 -4 4 -10z m190 0 c0 -5 -5 -10 -11 -10 -5 0 -7 5 -4 10 3 6
8 10 11 10 2 0 4 -4 4 -10z m-160 -10 c0 -5 -5 -10 -11 -10 -5 0 -7 5 -4 10 3
6 8 10 11 10 2 0 4 -4 4 -10z m200 0 c0 -5 -5 -10 -11 -10 -5 0 -7 5 -4 10 3
6 8 10 11 10 2 0 4 -4 4 -10z m2245 -18 c89 -24 198 -79 189 -94 -5 -8 -2 -9
10 -5 10 4 15 3 11 -3 -3 -5 9 -19 27 -29 27 -17 32 -26 33 -61 1 -22 0 -40
-2 -40 -1 0 -35 20 -75 44 -40 24 -82 45 -93 47 -20 2 -75 -10 -75 -17 0 -2
31 -34 70 -70 64 -61 130 -145 130 -166 0 -22 -23 -4 -36 30 -22 53 -58 97
-99 122 -34 21 -37 21 -70 6 -23 -11 -46 -14 -74 -10 -35 6 -46 2 -76 -20 -20
-15 -32 -32 -29 -38 4 -7 2 -8 -4 -4 -6 4 -21 2 -32 -4 -16 -9 -19 -8 -14 7 4
13 0 12 -12 -4 -21 -29 -45 -29 -72 0 -21 22 -21 24 -5 47 9 14 28 38 42 54
15 17 20 27 11 24 -8 -2 -26 -21 -39 -41 -18 -27 -37 -40 -75 -53 -28 -9 -62
-23 -75 -31 -13 -8 -26 -11 -30 -7 -9 14 -41 16 -41 4 0 -6 -5 -8 -10 -5 -6 4
-8 11 -5 16 4 5 -1 9 -9 9 -9 0 -16 -4 -16 -10 0 -5 5 -10 10 -10 6 0 10 -7
10 -16 0 -8 -4 -13 -9 -10 -5 4 -22 -5 -38 -18 -15 -13 -32 -23 -38 -22 -20 2
-62 51 -56 66 4 12 1 11 -12 -2 -9 -9 -17 -21 -17 -27 0 -5 -9 -13 -21 -16
-11 -4 -18 -12 -16 -18 2 -6 -5 -19 -15 -29 -10 -10 -18 -27 -18 -38 0 -11 -4
-20 -9 -20 -18 0 -3 -74 18 -91 28 -22 27 -41 -1 -38 -35 3 -76 -11 -83 -29
-3 -9 -9 -45 -12 -79 -3 -35 -9 -63 -13 -63 -14 0 -30 62 -42 155 -30 243 84
450 309 562 121 60 194 73 373 69 111 -3 175 -10 225 -24z m-3527 -42 c0 -9
-3 -7 -8 5 -5 11 -8 29 -8 40 0 16 2 15 8 -5 4 -14 8 -32 8 -40z m1112 50 c0
-5 -5 -10 -11 -10 -5 0 -7 5 -4 10 3 6 8 10 11 10 2 0 4 -4 4 -10z m210 0 c0
-5 -5 -10 -11 -10 -5 0 -7 5 -4 10 3 6 8 10 11 10 2 0 4 -4 4 -10z m-350 -10
c0 -5 -5 -10 -11 -10 -5 0 -7 5 -4 10 3 6 8 10 11 10 2 0 4 -4 4 -10z m390 0
c0 -5 -5 -10 -11 -10 -5 0 -7 5 -4 10 3 6 8 10 11 10 2 0 4 -4 4 -10z m260 6
c0 -3 -4 -8 -10 -11 -5 -3 -10 -1 -10 4 0 6 5 11 10 11 6 0 10 -2 10 -4z
m-4105 -16 c3 -5 1 -10 -4 -10 -6 0 -11 5 -11 10 0 6 2 10 4 10 3 0 8 -4 11
-10z m3485 0 c0 -5 -5 -10 -11 -10 -5 0 -7 5 -4 10 3 6 8 10 11 10 2 0 4 -4 4
-10z m185 0 c-3 -5 -11 -10 -16 -10 -6 0 -7 5 -4 10 3 6 11 10 16 10 6 0 7 -4
4 -10z m64 -11 c12 -12 29 -18 38 -15 10 4 14 2 10 -8 -6 -16 36 -56 59 -56 8
0 13 -4 10 -8 -6 -10 54 -58 67 -54 15 5 6 -14 -13 -26 -17 -10 -20 -10 -20 4
0 8 -4 13 -9 10 -5 -3 -11 3 -14 14 -5 20 -27 28 -27 10 0 -5 -5 -10 -12 -10
-9 0 -9 3 0 12 14 14 -2 38 -24 38 -8 0 -14 5 -14 11 0 6 -9 8 -22 4 -16 -6
-20 -4 -15 8 7 18 -37 62 -52 52 -12 -7 -15 17 -4 28 10 11 18 8 42 -14z m161
17 c0 -3 -4 -8 -10 -11 -5 -3 -10 -1 -10 4 0 6 5 11 10 11 6 0 10 -2 10 -4z
m-380 -16 c0 -5 -5 -10 -11 -10 -5 0 -7 5 -4 10 3 6 8 10 11 10 2 0 4 -4 4
-10z m420 0 c0 -5 -5 -10 -11 -10 -5 0 -7 5 -4 10 3 6 8 10 11 10 2 0 4 -4 4
-10z m-390 -10 c0 -5 -5 -10 -11 -10 -5 0 -7 5 -4 10 3 6 8 10 11 10 2 0 4 -4
4 -10z m440 6 c0 -3 -4 -8 -10 -11 -5 -3 -10 -1 -10 4 0 6 5 11 10 11 6 0 10
-2 10 -4z m-410 -16 c0 -5 -5 -10 -11 -10 -5 0 -7 5 -4 10 3 6 8 10 11 10 2 0
4 -4 4 -10z m510 0 c0 -5 -5 -10 -11 -10 -5 0 -7 5 -4 10 3 6 8 10 11 10 2 0
4 -4 4 -10z m-470 -4 c0 -3 -4 -8 -10 -11 -5 -3 -10 -1 -10 4 0 6 5 11 10 11
6 0 10 -2 10 -4z m210 -6 c0 -5 -5 -10 -11 -10 -5 0 -7 5 -4 10 3 6 8 10 11
10 2 0 4 -4 4 -10z m-180 -10 c0 -5 -5 -10 -11 -10 -5 0 -7 5 -4 10 3 6 8 10
11 10 2 0 4 -4 4 -10z m230 6 c0 -3 -4 -8 -10 -11 -5 -3 -10 -1 -10 4 0 6 5
11 10 11 6 0 10 -2 10 -4z m-190 -16 c0 -5 -5 -10 -11 -10 -5 0 -7 5 -4 10 3
6 8 10 11 10 2 0 4 -4 4 -10z m280 0 c0 -5 -5 -10 -11 -10 -5 0 -7 5 -4 10 3
6 8 10 11 10 2 0 4 -4 4 -10z m-440 -10 c0 -5 -5 -10 -11 -10 -5 0 -7 5 -4 10
3 6 8 10 11 10 2 0 4 -4 4 -10z m200 0 c0 -5 -4 -10 -10 -10 -5 0 -10 5 -10
10 0 6 5 10 10 10 6 0 10 -4 10 -10z m290 0 c0 -5 -5 -10 -11 -10 -5 0 -7 5
-4 10 3 6 8 10 11 10 2 0 4 -4 4 -10z m-1500 -45 c0 -5 -5 -3 -10 5 -5 8 -10
20 -10 25 0 6 5 3 10 -5 5 -8 10 -19 10 -25z m1080 31 c0 -3 -4 -8 -10 -11 -5
-3 -10 -1 -10 4 0 6 5 11 10 11 6 0 10 -2 10 -4z m-150 -10 c0 -3 -4 -8 -10
-11 -5 -3 -10 -1 -10 4 0 6 5 11 10 11 6 0 10 -2 10 -4z m30 -10 c0 -3 -4 -8
-10 -11 -5 -3 -10 -1 -10 4 0 6 5 11 10 11 6 0 10 -2 10 -4z m190 -6 c0 -5 -5
-10 -11 -10 -5 0 -7 5 -4 10 3 6 8 10 11 10 2 0 4 -4 4 -10z m280 0 c0 -5 -5
-10 -11 -10 -5 0 -7 5 -4 10 3 6 8 10 11 10 2 0 4 -4 4 -10z m-440 -10 c0 -5
-5 -10 -11 -10 -5 0 -7 5 -4 10 3 6 8 10 11 10 2 0 4 -4 4 -10z m490 0 c0 -5
-5 -10 -11 -10 -5 0 -7 5 -4 10 3 6 8 10 11 10 2 0 4 -4 4 -10z m-450 -4 c0
-3 -4 -8 -10 -11 -5 -3 -10 -1 -10 4 0 6 5 11 10 11 6 0 10 -2 10 -4z m30 -16
c0 -5 -4 -10 -10 -10 -5 0 -10 5 -10 10 0 6 5 10 10 10 6 0 10 -4 10 -10z
m220 6 c0 -3 -4 -8 -10 -11 -5 -3 -10 -1 -10 4 0 6 5 11 10 11 6 0 10 -2 10
-4z m5155 -6 c3 -5 1 -10 -4 -10 -6 0 -11 5 -11 10 0 6 2 10 4 10 3 0 8 -4 11
-10z m-5335 -4 c0 -3 -4 -8 -10 -11 -5 -3 -10 -1 -10 4 0 6 5 11 10 11 6 0 10
-2 10 -4z m-1066 -43 c9 -18 14 -33 12 -33 -6 0 -36 55 -36 66 0 11 5 3 24
-33z m906 27 c0 -5 -5 -10 -11 -10 -5 0 -7 5 -4 10 3 6 8 10 11 10 2 0 4 -4 4
-10z m200 6 c0 -3 -4 -8 -10 -11 -5 -3 -10 -1 -10 4 0 6 5 11 10 11 6 0 10 -2
10 -4z m40 -10 c0 -3 -4 -8 -10 -11 -5 -3 -10 -1 -10 4 0 6 5 11 10 11 6 0 10
-2 10 -4z m-170 -10 c0 -3 -4 -8 -10 -11 -5 -3 -10 -1 -10 4 0 6 5 11 10 11 6
0 10 -2 10 -4z m210 0 c0 -3 -4 -8 -10 -11 -5 -3 -10 -1 -10 4 0 6 5 11 10 11
6 0 10 -2 10 -4z m-140 -26 c0 -5 -5 -10 -11 -10 -5 0 -7 5 -4 10 3 6 8 10 11
10 2 0 4 -4 4 -10z m270 0 c0 -5 -5 -10 -11 -10 -5 0 -7 5 -4 10 3 6 8 10 11
10 2 0 4 -4 4 -10z m-230 -4 c0 -3 -4 -8 -10 -11 -5 -3 -10 -1 -10 4 0 6 5 11
10 11 6 0 10 -2 10 -4z m280 -6 c0 -5 -5 -10 -11 -10 -5 0 -7 5 -4 10 3 6 8
10 11 10 2 0 4 -4 4 -10z m-440 -4 c0 -3 -4 -8 -10 -11 -5 -3 -10 -1 -10 4 0
6 5 11 10 11 6 0 10 -2 10 -4z m200 0 c0 -3 -4 -8 -10 -11 -5 -3 -10 -1 -10 4
0 6 5 11 10 11 6 0 10 -2 10 -4z m-310 -20 c0 -3 -4 -8 -10 -11 -5 -3 -10 -1
-10 4 0 6 5 11 10 11 6 0 10 -2 10 -4z m220 -10 c0 -3 -4 -8 -10 -11 -5 -3
-10 -1 -10 4 0 6 5 11 10 11 6 0 10 -2 10 -4z m270 -6 c0 -5 -5 -10 -11 -10
-5 0 -7 5 -4 10 3 6 8 10 11 10 2 0 4 -4 4 -10z m7300 -4 c0 -8 -4 -17 -8 -20
-13 -8 -35 11 -28 23 10 16 36 14 36 -3z m-7730 -6 c0 -5 -5 -10 -11 -10 -5 0
-7 5 -4 10 3 6 8 10 11 10 2 0 4 -4 4 -10z m200 6 c0 -3 -4 -8 -10 -11 -5 -3
-10 -1 -10 4 0 6 5 11 10 11 6 0 10 -2 10 -4z m40 -10 c0 -3 -4 -8 -10 -11 -5
-3 -10 -1 -10 4 0 6 5 11 10 11 6 0 10 -2 10 -4z m-1060 -26 c6 -11 8 -20 6
-20 -3 0 -10 9 -16 20 -6 11 -8 20 -6 20 3 0 10 -9 16 -20z m890 10 c0 -5 -5
-10 -11 -10 -5 0 -7 5 -4 10 3 6 8 10 11 10 2 0 4 -4 4 -10z m2407 4 c-3 -3
-12 -4 -19 -1 -8 3 -5 6 6 6 11 1 17 -2 13 -5z m-2367 -8 c0 -3 -4 -8 -10 -11
-5 -3 -10 -1 -10 4 0 6 5 11 10 11 6 0 10 -2 10 -4z m-300 -26 c8 -5 11 -10 5
-10 -5 0 -17 5 -25 10 -8 5 -10 10 -5 10 6 0 17 -5 25 -10z m210 -10 c0 -5 -5
-10 -11 -10 -5 0 -7 5 -4 10 3 6 8 10 11 10 2 0 4 -4 4 -10z m-810 -20 c6 -11
8 -20 6 -20 -3 0 -10 9 -16 20 -6 11 -8 20 -6 20 3 0 10 -9 16 -20z m1060 16
c0 -3 -4 -8 -10 -11 -5 -3 -10 -1 -10 4 0 6 5 11 10 11 6 0 10 -2 10 -4z
m-510 -16 c0 -5 -5 -10 -11 -10 -5 0 -7 5 -4 10 3 6 8 10 11 10 2 0 4 -4 4
-10z m50 -20 c0 -5 -5 -10 -11 -10 -5 0 -7 5 -4 10 3 6 8 10 11 10 2 0 4 -4 4
-10z m22 -22 c-7 -7 -12 -8 -12 -2 0 6 3 14 7 17 3 4 9 5 12 2 2 -3 -1 -11 -7
-17z m2109 -21 c-10 -9 -11 -8 -5 6 3 10 9 15 12 12 3 -3 0 -11 -7 -18z m189
-37 c21 -37 25 -58 24 -120 0 -41 -6 -85 -13 -98 -6 -12 -14 -56 -16 -97 -3
-54 -10 -86 -24 -109 -25 -40 -27 -53 -4 -35 15 12 16 12 10 -3 -4 -10 -2 -18
4 -18 6 0 9 9 6 20 -4 17 4 25 44 45 54 28 63 30 53 14 -3 -6 -22 -17 -40 -25
-40 -17 -48 -39 -8 -24 40 16 49 12 59 -22 11 -36 6 -34 228 -95 75 -20 137
-41 137 -44 0 -4 -15 -3 -32 2 -118 35 -285 78 -304 79 -6 0 -10 -10 -9 -22 1
-18 12 -24 61 -36 32 -7 74 -15 92 -15 27 -2 32 -6 32 -26 0 -19 -4 -22 -22
-18 -140 31 -273 60 -318 68 -104 18 -100 16 -100 54 0 24 -5 35 -15 35 -8 0
-15 -4 -15 -9 0 -5 -14 -2 -31 6 -36 18 -149 14 -173 -6 -10 -8 -16 -9 -21 -1
-7 12 35 30 71 30 13 0 24 4 24 8 0 5 15 7 33 6 l32 -3 -32 10 c-17 6 -34 20
-36 30 -7 28 20 52 52 45 24 -6 25 -5 8 8 -12 9 -31 12 -53 9 -33 -5 -34 -4
-34 26 0 28 5 34 44 51 24 10 46 27 49 37 3 10 11 71 18 135 7 64 15 116 18
116 3 -1 17 3 31 9 14 6 36 16 50 21 14 6 41 10 60 9 30 -2 38 -8 60 -47z
m724 9 c-2 -4 3 -20 11 -35 17 -33 19 -44 6 -44 -5 0 -14 14 -21 30 -7 17 -16
30 -21 30 -5 0 -3 11 3 25 8 18 14 22 19 13 4 -7 6 -15 3 -19z m36 -44 c0 -5
-5 -3 -10 5 -5 8 -10 20 -10 25 0 6 5 3 10 -5 5 -8 10 -19 10 -25z m28 -70
c-3 -3 -9 2 -12 12 -6 14 -5 15 5 6 7 -7 10 -15 7 -18z m151 -123 c-17 -50
-23 -25 -8 30 8 26 14 36 16 25 3 -9 -1 -34 -8 -55z m5041 -2 c0 -5 -5 -10
-11 -10 -5 0 -7 5 -4 10 3 6 8 10 11 10 2 0 4 -4 4 -10z m-5033 -52 c-3 -8 -6
-5 -6 6 -1 11 2 17 5 13 3 -3 4 -12 1 -19z m-22 -84 c-23 -62 -29 -50 -8 16 9
29 19 47 21 41 2 -7 -4 -33 -13 -57z m-1285 -45 c-7 -11 -14 -18 -17 -15 -8 8
5 36 17 36 7 0 7 -6 0 -21z m1246 6 c-18 -44 -18 -51 -2 -31 22 28 20 14 -5
-28 -23 -39 -37 -50 -18 -14 9 17 9 24 -5 33 -19 14 -20 27 -4 43 17 17 41 15
34 -3z m4992 -46 c-2 -6 -8 -10 -13 -10 -5 0 -11 4 -13 10 -2 6 4 11 13 11 9
0 15 -5 13 -11z m-5386 -229 c-15 -21 -31 -35 -35 -30 -12 11 34 79 49 73 9
-3 4 -17 -14 -43z m-402 -1 c30 -7 47 -14 38 -17 -10 -2 -18 -12 -18 -23 0
-15 -5 -19 -17 -15 -49 14 -177 26 -224 22 -39 -4 -61 -1 -79 10 -23 14 -19
14 63 8 64 -4 92 -2 103 7 12 10 12 14 2 21 -16 12 53 4 132 -13z m158 -35
c10 -3 10 -8 0 -26 -7 -13 -14 -24 -15 -26 -3 -7 -83 21 -83 29 0 30 14 39 49
33 20 -3 42 -7 49 -10z m402 -7 c0 -2 -15 -16 -32 -33 l-33 -29 29 33 c28 30
36 37 36 29z m-306 -72 c32 -9 56 -18 54 -20 -4 -5 -139 33 -147 41 -3 4 3 4
14 1 11 -3 46 -13 79 -22z m3214 2 c2 -10 -3 -17 -12 -17 -18 0 -29 16 -21 31
9 14 29 6 33 -14z m-9248 -67 c0 -5 -4 -10 -10 -10 -5 0 -10 5 -10 10 0 6 5
10 10 10 6 0 10 -4 10 -10z m5627 -42 c-3 -7 -5 -2 -5 12 0 14 2 19 5 13 2 -7
2 -19 0 -25z m-74 -5 c-7 -2 -10 -10 -7 -16 6 -16 -22 -54 -32 -44 -4 4 1 14
12 21 10 8 16 18 12 22 -4 4 -3 13 4 21 6 7 14 11 17 7 3 -4 1 -9 -6 -11z
m-103 -144 c0 -4 -7 -9 -15 -13 -8 -3 -23 -21 -32 -41 -17 -35 -17 -35 -30
-13 -17 32 -16 41 7 71 18 23 24 25 45 15 14 -6 25 -15 25 -19z m25 11 c3 -5
1 -10 -4 -10 -6 0 -11 5 -11 10 0 6 2 10 4 10 3 0 8 -4 11 -10z m615 -31 c0
-10 -4 -19 -10 -19 -5 0 -10 12 -10 26 0 14 4 23 10 19 6 -3 10 -15 10 -26z
m-654 -41 c-9 -12 -16 -31 -16 -41 0 -10 -4 -15 -10 -12 -17 10 -11 41 12 70
25 32 38 17 14 -17z m464 -100 c10 -6 -5 -8 -43 -5 -32 2 -62 8 -68 14 -13 13
89 5 111 -9z m-43 -37 c30 -7 33 -9 12 -10 -33 -1 -89 18 -89 30 0 6 8 5 19
-1 11 -5 37 -14 58 -19z m-27 -47 c0 -2 -9 0 -20 6 -11 6 -20 13 -20 16 0 2 9
0 20 -6 11 -6 20 -13 20 -16z m-219 -40 c-7 -31 -9 -34 -10 -12 -1 27 9 62 15
55 3 -2 0 -22 -5 -43z m589 37 c0 -6 -4 -13 -10 -16 -5 -3 -10 1 -10 9 0 9 5
16 10 16 6 0 10 -4 10 -9z m-100 -46 c0 -2 -9 -9 -20 -15 -12 -6 -20 -7 -20
-1 0 5 8 12 18 14 9 3 18 5 20 6 1 0 2 -1 2 -4z m-69 -45 c-13 -11 -28 -20
-35 -20 -6 0 3 9 19 19 39 25 46 25 16 1z m-391 -44 c0 -3 -4 -8 -10 -11 -5
-3 -10 -1 -10 4 0 6 5 11 10 11 6 0 10 -2 10 -4z m40 -68 c0 -6 -7 -5 -15 2
-8 7 -15 17 -15 22 0 6 7 5 15 -2 8 -7 15 -17 15 -22z m330 -61 c10 -4 8 -6
-7 -6 -13 -1 -23 -5 -23 -11 0 -5 -6 -7 -14 -4 -12 5 -12 8 2 23 9 9 19 14 22
11 3 -4 12 -10 20 -13z m-171 -52 c2 -3 -8 -5 -23 -5 -16 0 -25 -4 -21 -10 4
-6 -12 -10 -42 -9 -36 0 -43 3 -28 9 11 5 14 9 6 9 -11 1 -11 4 -1 15 6 8 19
12 27 9 11 -4 14 -3 9 6 -5 8 5 7 30 -4 21 -9 40 -18 43 -20z m196 -15 c-3 -5
-11 -10 -16 -10 -6 0 -7 5 -4 10 3 6 11 10 16 10 6 0 7 -4 4 -10z m-270 -122
c7 -7 2 -9 -15 -4 -14 3 -33 6 -42 6 -10 0 -18 5 -18 11 0 13 60 2 75 -13z"/>
<path d="M5945 4930 c-229 -17 -459 -62 -669 -130 -141 -46 -167 -66 -35 -26
87 25 307 60 489 76 125 11 385 11 455 0 l50 -7 -60 -3 c-45 -2 -28 -5 65 -11
69 -5 150 -11 180 -13 87 -6 222 -27 242 -37 13 -7 18 -6 18 3 0 7 19 29 42
49 l42 36 -114 21 c-222 42 -490 57 -705 42z"/>
<path d="M7945 4929 c-4 -6 -5 -12 -2 -15 2 -3 7 2 10 11 7 17 1 20 -8 4z"/>
<path d="M6765 4840 c-3 -11 -4 -24 -1 -29 3 -5 -10 -23 -30 -40 -22 -20 -30
-33 -22 -35 133 -39 359 -143 482 -223 99 -64 206 -154 268 -223 35 -40 55
-56 59 -47 4 7 10 59 14 117 l7 105 -38 38 c-91 91 -316 220 -509 292 l-100
37 -32 -38 c-39 -47 -40 -52 -8 -60 51 -13 16 -15 -47 -3 -72 13 -108 35 -41
25 38 -5 43 -3 72 29 17 20 31 40 31 44 0 7 -73 31 -94 31 -2 0 -7 -9 -11 -20z
m170 -130 c13 -5 14 -9 5 -9 -8 0 -24 4 -35 9 -13 5 -14 9 -5 9 8 0 24 -4 35
-9z m52 -16 c-3 -3 -12 -4 -19 -1 -8 3 -5 6 6 6 11 1 17 -2 13 -5z"/>
<path d="M6615 4765 c56 -16 77 -19 55 -6 -8 5 -35 11 -60 15 l-45 6 50 -15z"/>
<path d="M4578 4484 c-39 -21 -35 -28 5 -8 37 19 44 24 31 24 -5 -1 -21 -8
-36 -16z"/>
<path d="M4514 4444 c-18 -14 -18 -15 4 -4 12 6 22 13 22 15 0 8 -5 6 -26 -11z"/>
<path d="M7555 4394 c-3 -33 -8 -71 -10 -86 -2 -15 0 -30 5 -33 5 -3 5 -19 -1
-38 -11 -39 -11 -37 0 -37 9 0 81 131 81 146 -1 5 -12 -13 -26 -40 -19 -36
-29 -45 -37 -37 -8 8 -5 23 11 56 12 25 26 45 32 45 19 0 10 26 -19 54 l-29
28 -7 -58z"/>
<path d="M7614 4262 c-30 -55 -40 -86 -37 -105 11 -56 27 -49 80 38 l51 84
-19 30 c-10 17 -22 31 -26 31 -5 0 -27 -35 -49 -78z"/>
<path d="M4294 4208 c-33 -35 -84 -83 -114 -108 l-55 -45 29 40 c16 22 39 52
50 66 12 14 4 7 -18 -15 -21 -23 -50 -56 -63 -73 l-25 -32 22 -36 c25 -40 36
-44 45 -15 9 28 94 156 148 223 26 31 46 57 44 57 -2 0 -31 -28 -63 -62z"/>
<path d="M7535 4114 c-11 -17 -15 -37 -12 -54 3 -15 2 -31 -2 -36 -13 -14 -24
-74 -13 -74 5 0 25 32 45 70 31 61 35 74 25 95 -14 32 -22 31 -43 -1z"/>
<path d="M7591 4042 c-10 -19 -9 -21 6 -15 16 6 16 5 4 -10 -7 -9 -9 -17 -3
-17 15 0 23 29 13 47 -7 14 -10 13 -20 -5z"/>
<path d="M4020 3995 c-8 -14 -39 -47 -69 -73 -31 -26 -74 -64 -96 -84 -22 -21
-47 -38 -55 -38 -8 0 7 -22 35 -50 27 -27 52 -50 56 -50 4 0 15 24 24 53 10
28 42 99 71 156 30 57 52 106 51 108 -2 1 -10 -8 -17 -22z"/>
<path d="M7565 3999 c-4 -6 -5 -12 -2 -15 2 -3 7 2 10 11 7 17 1 20 -8 4z"/>
<path d="M4060 3987 c0 -4 12 -31 26 -60 26 -49 27 -51 36 -27 7 20 3 29 -27
59 -19 20 -35 32 -35 28z"/>
<path d="M3792 3945 c0 -16 2 -22 5 -12 2 9 2 23 0 30 -3 6 -5 -1 -5 -18z"/>
<path d="M3992 3868 c-61 -123 -80 -184 -65 -208 11 -17 10 -18 -5 -14 -13 5
-14 4 -3 -4 15 -11 6 -36 -10 -27 -5 4 -10 -3 -10 -14 -1 -12 -2 -26 -3 -31
-2 -16 55 -49 72 -42 11 4 14 1 9 -11 -8 -20 4 -22 22 -4 10 10 12 8 9 -11 -2
-17 5 -28 27 -40 17 -9 33 -21 36 -26 4 -5 12 -5 19 -1 19 12 -29 57 -53 49
-13 -4 -17 -2 -12 6 11 17 -15 74 -28 61 -17 -17 -27 -13 -20 7 6 15 5 15 -10
3 -28 -22 -31 -5 -7 29 16 22 28 30 41 27 21 -6 27 18 7 27 -10 5 -10 7 0 12
6 3 12 14 12 23 0 10 14 35 30 56 20 25 27 41 19 45 -7 5 -6 9 4 13 29 11 29
55 1 108 -15 27 -30 49 -34 49 -4 0 -25 -37 -48 -82z m78 -3 c0 -8 -7 -15 -15
-15 -8 0 -15 7 -15 15 0 8 7 15 15 15 8 0 15 -7 15 -15z m10 -29 c0 -3 -4 -8
-10 -11 -5 -3 -10 -1 -10 4 0 6 5 11 10 11 6 0 10 -2 10 -4z m-60 -30 c0 -3
-4 -8 -10 -11 -5 -3 -10 -1 -10 4 0 6 5 11 10 11 6 0 10 -2 10 -4z m30 -10 c0
-3 -4 -8 -10 -11 -5 -3 -10 -1 -10 4 0 6 5 11 10 11 6 0 10 -2 10 -4z m-60
-30 c0 -3 -4 -8 -10 -11 -5 -3 -10 -1 -10 4 0 6 5 11 10 11 6 0 10 -2 10 -4z
m-30 -40 c0 -3 -4 -8 -10 -11 -5 -3 -10 -1 -10 4 0 6 5 11 10 11 6 0 10 -2 10
-4z m55 -26 c-3 -5 -11 -10 -16 -10 -6 0 -7 5 -4 10 3 6 11 10 16 10 6 0 7 -4
4 -10z m-55 -24 c0 -3 -4 -8 -10 -11 -5 -3 -10 -1 -10 4 0 6 5 11 10 11 6 0
10 -2 10 -4z m30 -10 c0 -3 -4 -8 -10 -11 -5 -3 -10 -1 -10 4 0 6 5 11 10 11
6 0 10 -2 10 -4z m-30 -45 c0 -12 -20 -25 -27 -18 -7 7 6 27 18 27 5 0 9 -4 9
-9z m-26 -46 c-6 -16 -24 -21 -24 -7 0 11 11 22 21 22 5 0 6 -7 3 -15z"/>
<path d="M3242 3872 c-21 -7 -13 -46 19 -97 17 -27 32 -54 33 -60 2 -17 98
-125 110 -125 6 0 -12 23 -39 50 -51 52 -53 64 -5 30 33 -24 76 -41 83 -33 8
7 -13 42 -47 80 -36 40 -28 53 13 23 17 -11 35 -19 39 -16 5 3 18 -1 28 -9 21
-16 38 -20 30 -6 -3 5 1 14 9 21 29 24 14 40 -77 84 -91 43 -171 67 -196 58z"/>
<path d="M4108 3795 c-5 -25 6 -32 30 -17 10 7 8 12 -7 26 -18 16 -19 16 -23
-9z"/>
<path d="M7905 3811 c-3 -5 -1 -12 5 -16 5 -3 10 1 10 9 0 18 -6 21 -15 7z"/>
<path d="M3560 3756 c0 -2 11 -11 25 -20 14 -9 25 -13 25 -8 0 5 -11 14 -25
20 -14 6 -25 10 -25 8z"/>
<path d="M3736 3724 c-12 -18 -25 -24 -38 -21 -26 7 -24 6 68 -58 l79 -55 18
21 c24 30 22 47 -3 19 -14 -16 -20 -18 -20 -9 0 8 5 20 12 27 10 10 1 22 -37
57 -28 24 -52 44 -55 44 -3 0 -13 -11 -24 -25z m73 -43 c9 -16 8 -18 -9 -14
-21 5 -25 15 -13 26 9 10 11 9 22 -12z"/>
<path d="M4043 3683 c-3 -10 -8 -21 -10 -25 -2 -5 0 -8 5 -8 5 0 12 11 14 25
6 29 0 33 -9 8z"/>
<path d="M4470 3690 c0 -5 5 -10 11 -10 5 0 7 5 4 10 -3 6 -8 10 -11 10 -2 0
-4 -4 -4 -10z"/>
<path d="M3873 3675 c0 -8 4 -12 9 -9 5 3 6 10 3 15 -9 13 -12 11 -12 -6z"/>
<path d="M3430 3556 c0 -2 8 -10 18 -17 15 -13 16 -12 3 4 -13 16 -21 21 -21
13z"/>
<path d="M5812 3259 c-34 -11 -60 -24 -57 -28 8 -14 125 -2 142 14 8 8 20 12
26 8 7 -4 6 1 -2 10 -17 21 -31 21 -109 -4z"/>
<path d="M6001 3273 c-22 -9 115 -73 155 -73 31 0 34 2 24 19 -16 31 -142 68
-179 54z"/>
<path d="M5920 3220 c0 -5 7 -10 15 -10 8 0 15 5 15 10 0 6 -7 10 -15 10 -8 0
-15 -4 -15 -10z"/>
<path d="M6005 3220 c3 -5 13 -10 21 -10 8 0 12 -4 9 -10 -3 -5 2 -10 13 -10
33 0 33 13 1 27 -37 16 -52 17 -44 3z"/>
<path d="M5765 3201 c-3 -5 -1 -12 5 -16 5 -3 10 1 10 9 0 18 -6 21 -15 7z"/>
<path d="M5604 2732 c-18 -28 -29 -86 -14 -77 11 7 19 25 34 73 9 26 -5 29
-20 4z"/>
<path d="M5630 2620 c-9 -6 -10 -10 -3 -10 6 0 15 5 18 10 8 12 4 12 -15 0z"/>
<path d="M5560 2610 c0 -5 5 -10 10 -10 6 0 10 5 10 10 0 6 -4 10 -10 10 -5 0
-10 -4 -10 -10z"/>
<path d="M5540 2440 c0 -6 17 -10 37 -10 43 0 41 5 -4 13 -19 4 -33 2 -33 -3z"/>
<path d="M5628 2423 c6 -2 18 -2 25 0 6 3 1 5 -13 5 -14 0 -19 -2 -12 -5z"/>
<path d="M5640 2355 c0 -8 7 -15 15 -15 8 0 15 4 15 9 0 5 -7 11 -15 15 -9 3
-15 0 -15 -9z"/>
<path d="M5465 1820 c-10 -11 -16 -22 -13 -25 3 -3 13 6 22 20 20 30 16 32 -9
5z"/>
<path d="M6073 1749 c9 -6 14 -15 11 -21 -5 -7 0 -9 13 -6 11 3 28 1 38 -5 13
-7 16 -6 11 2 -4 6 -23 18 -43 26 -41 17 -56 19 -30 4z"/>
<path d="M6050 1716 c0 -2 7 -7 16 -10 8 -3 12 -2 9 4 -6 10 -25 14 -25 6z"/>
<path d="M5552 1585 c-17 -37 -14 -45 4 -12 9 16 14 31 11 33 -2 2 -9 -7 -15
-21z"/>
<path d="M5532 1500 c0 -14 2 -19 5 -12 2 6 2 18 0 25 -3 6 -5 1 -5 -13z"/>
<path d="M5501 1477 c-1 -5 9 -32 21 -60 25 -58 73 -111 109 -121 24 -7 24 -7
-3 18 -16 14 -28 29 -28 33 0 4 -10 19 -21 33 l-21 25 17 -29 c12 -21 13 -27
3 -24 -7 3 -27 33 -45 69 -17 35 -32 60 -32 56z"/>
<path d="M5610 1171 c0 -6 4 -13 10 -16 6 -3 7 1 4 9 -7 18 -14 21 -14 7z"/>
<path d="M5615 1130 c3 -5 10 -10 16 -10 5 0 9 5 9 10 0 6 -7 10 -16 10 -8 0
-12 -4 -9 -10z"/>
<path d="M5480 1100 c0 -5 14 -10 30 -10 17 0 30 5 30 10 0 6 -13 10 -30 10
-16 0 -30 -4 -30 -10z"/>
<path d="M5573 1097 c-3 -6 -1 -7 5 -3 15 9 15 5 -3 -35 -8 -19 -14 -28 -15
-21 0 18 -43 15 -177 -12 -176 -36 -172 -35 -168 -58 8 -42 44 -57 77 -31 29
22 108 54 130 52 39 -4 128 13 128 25 0 6 4 4 10 -4 7 -12 10 -11 15 5 4 11
13 35 21 53 8 18 14 34 14 36 0 7 -32 2 -37 -7z"/>
<path d="M5837 1092 c-10 -10 -17 -23 -17 -28 0 -4 7 1 15 13 12 16 23 21 48
18 23 -3 28 -2 17 5 -23 15 -45 12 -63 -8z"/>
<path d="M5727 1043 c-3 -10 -8 -31 -12 -48 -3 -16 -8 -38 -11 -47 -3 -10 -1
-18 5 -18 6 0 10 3 9 8 -1 4 4 31 10 61 7 30 10 56 8 58 -2 3 -6 -4 -9 -14z"/>
<path d="M6338 1028 c9 -9 15 -9 24 0 9 9 7 12 -12 12 -19 0 -21 -3 -12 -12z"/>
<path d="M6420 1022 c0 -7 62 -31 94 -36 10 -1 22 -9 27 -18 5 -9 24 -15 48
-16 91 -4 39 39 -77 64 -77 16 -92 17 -92 6z"/>
<path d="M6318 1003 c7 -3 16 -2 19 1 4 3 -2 6 -13 5 -11 0 -14 -3 -6 -6z"/>
<path d="M6337 960 c-9 -20 -16 -28 -17 -17 0 24 -26 22 -33 -3 -4 -16 -14
-20 -51 -20 -43 0 -46 -1 -36 -20 9 -17 19 -19 63 -16 28 2 57 5 64 5 6 1 15
11 18 22 5 15 10 18 15 9 5 -8 9 -8 13 4 4 9 2 16 -3 16 -5 0 -10 12 -12 28
l-4 27 -17 -35z"/>
<path d="M4874 972 c5 -8 76 -4 76 4 0 2 -18 4 -41 4 -22 0 -38 -4 -35 -8z"/>
<path d="M5790 942 c0 -6 -8 -13 -17 -15 -10 -3 2 -5 27 -5 25 0 38 2 30 5 -8
3 -21 10 -27 16 -9 6 -13 6 -13 -1z"/>
<path d="M7117 933 c18 -2 50 -2 70 0 21 2 7 4 -32 4 -38 0 -55 -2 -38 -4z"/>
<path d="M5063 883 c9 -2 25 -2 35 0 9 3 1 5 -18 5 -19 0 -27 -2 -17 -5z"/>
<path d="M6355 869 c-11 -17 1 -21 15 -4 8 9 8 15 2 15 -6 0 -14 -5 -17 -11z"/>
<path d="M4858 863 c6 -2 18 -2 25 0 6 3 1 5 -13 5 -14 0 -19 -2 -12 -5z"/>
<path d="M5047 853 c-13 -13 -7 -32 8 -27 8 4 15 12 15 20 0 15 -12 19 -23 7z"/>
<path d="M6250 846 c0 -8 5 -18 10 -21 6 -3 10 1 10 9 0 8 -4 18 -10 21 -5 3
-10 -1 -10 -9z"/>
<path d="M6625 849 c3 -4 25 -10 50 -13 25 -4 45 -11 45 -17 0 -5 5 -9 10 -9
6 0 10 6 10 14 0 9 -21 17 -59 23 -33 5 -58 6 -56 2z"/>
<path d="M4595 820 c-3 -5 -2 -10 4 -10 5 0 13 5 16 10 3 6 2 10 -4 10 -5 0
-13 -4 -16 -10z"/>
<path d="M4532 811 c-11 -6 -10 -10 4 -15 10 -4 24 0 33 9 14 13 13 15 -4 15
-11 0 -26 -4 -33 -9z"/>
<path d="M6920 810 c0 -5 5 -10 10 -10 6 0 10 5 10 10 0 6 -4 10 -10 10 -5 0
-10 -4 -10 -10z"/>
<path d="M4438 803 c6 -2 18 -2 25 0 6 3 1 5 -13 5 -14 0 -19 -2 -12 -5z"/>
<path d="M6813 803 c15 -2 37 -2 50 0 12 2 0 4 -28 4 -27 0 -38 -2 -22 -4z"/>
<path d="M4355 790 c3 -5 18 -10 33 -9 24 0 25 1 7 9 -28 12 -47 12 -40 0z"/>
<path d="M5130 720 l-45 -6 43 -5 c24 -2 46 -1 49 4 7 12 3 13 -47 7z"/>
</g>
</svg>
