<svg width="888" height="881" viewBox="0 0 888 881" fill="none" xmlns="http://www.w3.org/2000/svg">
<rect width="1920" height="1080" transform="translate(-446 -80)" fill="white"/>
<g filter="url(#filter0_d)">
<path d="M142.5 224L239.062 281.25V395.75L142.5 453L45.9382 395.75V281.25L142.5 224Z" fill="white"/>
<path d="M46.4382 281.535L142.5 224.581L238.562 281.535V395.465L142.5 452.419L46.4382 395.465V281.535Z" stroke="black"/>
</g>
<line x1="46.7362" y1="396.575" x2="141.736" y2="337.575" stroke="black"/>
<line x1="47.2505" y1="282.567" x2="142.251" y2="337.567" stroke="black"/>
<line x1="142.26" y1="337.573" x2="239.26" y2="396.573" stroke="black"/>
<line x1="142.239" y1="337.337" x2="238.753" y2="282.565" stroke="black"/>
<line x1="142.5" y1="224" x2="142.5" y2="453" stroke="black"/>
<g filter="url(#filter1_d)">
<path d="M438.5 444L535.062 501.25V615.75L438.5 673L341.938 615.75V501.25L438.5 444Z" fill="white"/>
<path d="M342.438 501.535L438.5 444.581L534.562 501.535V615.465L438.5 672.419L342.438 615.465V501.535Z" stroke="black"/>
</g>
<line x1="342.736" y1="616.575" x2="437.736" y2="557.575" stroke="black"/>
<line x1="343.251" y1="502.567" x2="438.251" y2="557.567" stroke="black"/>
<line x1="438.26" y1="557.573" x2="535.26" y2="616.573" stroke="black"/>
<line x1="438.239" y1="557.337" x2="534.753" y2="502.565" stroke="black"/>
<line x1="438.5" y1="444" x2="438.5" y2="673" stroke="black"/>
<g filter="url(#filter2_d)">
<path d="M749.5 231L846.062 288.25V402.75L749.5 460L652.938 402.75V288.25L749.5 231Z" fill="white"/>
<path d="M653.438 288.535L749.5 231.581L845.562 288.535V402.465L749.5 459.419L653.438 402.465V288.535Z" stroke="black"/>
</g>
<line x1="653.736" y1="403.575" x2="748.736" y2="344.575" stroke="black"/>
<line x1="654.251" y1="289.567" x2="749.25" y2="344.567" stroke="black"/>
<line x1="749.26" y1="344.573" x2="846.26" y2="403.573" stroke="black"/>
<line x1="749.239" y1="344.337" x2="845.753" y2="289.565" stroke="black"/>
<line x1="749.5" y1="231" x2="749.5" y2="460" stroke="black"/>
<g filter="url(#filter3_d)">
<path d="M453.5 25L550.062 82.25V196.75L453.5 254L356.938 196.75V82.25L453.5 25Z" fill="white"/>
<path d="M357.438 82.5348L453.5 25.5813L549.562 82.5348V196.465L453.5 253.419L357.438 196.465V82.5348Z" stroke="black"/>
</g>
<line x1="357.736" y1="197.575" x2="452.736" y2="138.575" stroke="black"/>
<line x1="358.251" y1="83.5673" x2="453.251" y2="138.567" stroke="black"/>
<line x1="453.26" y1="138.573" x2="550.26" y2="197.573" stroke="black"/>
<line x1="453.239" y1="138.337" x2="549.753" y2="83.5651" stroke="black"/>
<line x1="453.5" y1="25" x2="453.5" y2="254" stroke="black"/>
<line x1="253.74" y1="279.573" x2="345.74" y2="223.573" stroke="black"/>
<line x1="227.281" y1="446.586" x2="317.281" y2="507.586" stroke="black"/>
<line x1="556.281" y1="230.586" x2="646.281" y2="291.586" stroke="black"/>
<line x1="559.742" y1="507.572" x2="660.742" y2="446.572" stroke="black"/>
<path d="M123.312 740.562C128.031 740.562 132.484 740.984 136.672 741.828C140.859 742.672 144.516 743.844 147.641 745.344C150.797 746.844 153.297 748.641 155.141 750.734C156.984 752.828 157.906 755.125 157.906 757.625V765.219H145.719V761.188C145.719 759.844 145.203 758.562 144.172 757.344C143.141 756.125 141.656 755.047 139.719 754.109C137.812 753.172 135.469 752.438 132.688 751.906C129.938 751.344 126.812 751.062 123.312 751.062C119.938 751.062 116.875 751.328 114.125 751.859C111.375 752.391 109.016 753.109 107.047 754.016C105.078 754.922 103.562 756 102.5 757.25C101.438 758.469 100.906 759.781 100.906 761.188V791.562C100.906 792.938 101.438 794.25 102.5 795.5C103.562 796.719 105.078 797.797 107.047 798.734C109.016 799.641 111.375 800.359 114.125 800.891C116.875 801.422 119.938 801.688 123.312 801.688C126.812 801.688 129.938 801.422 132.688 800.891C135.469 800.328 137.812 799.578 139.719 798.641C141.656 797.703 143.141 796.625 144.172 795.406C145.203 794.188 145.719 792.906 145.719 791.562V784.812C142.812 784.812 140.203 784.891 137.891 785.047C135.609 785.203 133.656 785.359 132.031 785.516C130.125 785.734 128.438 785.969 126.969 786.219L128.188 774.875C132.969 774.5 137.469 774.312 141.688 774.312C147.344 774.312 152.75 774.594 157.906 775.156V795.125C157.906 797.625 156.984 799.922 155.141 802.016C153.297 804.078 150.797 805.859 147.641 807.359C144.516 808.859 140.859 810.031 136.672 810.875C132.484 811.688 128.031 812.094 123.312 812.094C118.594 812.094 114.141 811.688 109.953 810.875C105.766 810.031 102.094 808.859 98.9375 807.359C95.8125 805.859 93.3281 804.078 91.4844 802.016C89.6406 799.922 88.7188 797.625 88.7188 795.125V757.625C88.7188 755.125 89.6406 752.828 91.4844 750.734C93.3281 748.641 95.8125 746.844 98.9375 745.344C102.094 743.844 105.766 742.672 109.953 741.828C114.141 740.984 118.594 740.562 123.312 740.562ZM203.75 758.562C205.344 758.562 207.266 758.641 209.516 758.797C211.766 758.953 214.094 759.234 216.5 759.641C218.938 760.016 221.344 760.562 223.719 761.281C226.094 761.969 228.219 762.859 230.094 763.953C232 765.047 233.531 766.375 234.688 767.938C235.875 769.469 236.469 771.281 236.469 773.375V789.219H182.75V801.219C186.531 801.75 190.172 802.125 193.672 802.344C197.172 802.531 200.531 802.625 203.75 802.625C208.656 802.625 213.094 802.438 217.062 802.062C221.062 801.688 224.516 801.266 227.422 800.797C230.766 800.266 233.781 799.656 236.469 798.969V809.375C230.531 810.312 224.797 810.984 219.266 811.391C213.766 811.797 208.594 812 203.75 812C198.875 812 194.453 811.875 190.484 811.625C186.516 811.344 183.109 811.031 180.266 810.688C176.953 810.312 173.969 809.875 171.312 809.375V773.375C171.312 771.281 171.828 769.469 172.859 767.938C173.891 766.375 175.266 765.047 176.984 763.953C178.703 762.859 180.672 761.969 182.891 761.281C185.141 760.562 187.469 760.016 189.875 759.641C192.281 759.234 194.672 758.953 197.047 758.797C199.453 758.641 201.688 758.562 203.75 758.562ZM182.75 781.719H224.844V776.281C224.844 775 224.531 773.906 223.906 773C223.281 772.062 222.438 771.281 221.375 770.656C220.344 770.031 219.125 769.531 217.719 769.156C216.344 768.75 214.906 768.453 213.406 768.266C211.906 768.047 210.391 767.906 208.859 767.844C207.359 767.781 205.938 767.75 204.594 767.75C203.188 767.75 201.672 767.781 200.047 767.844C198.453 767.906 196.844 768.047 195.219 768.266C193.594 768.484 192.031 768.797 190.531 769.203C189.031 769.578 187.703 770.094 186.547 770.75C185.391 771.375 184.469 772.156 183.781 773.094C183.094 774 182.75 775.094 182.75 776.375V781.719ZM252.406 773.281C252.281 772.281 251.984 771.438 251.516 770.75C251.078 770.062 250.594 769.5 250.062 769.062C249.469 768.531 248.812 768.094 248.094 767.75L253.344 758.562C254.5 758.969 255.656 759.516 256.812 760.203C257.781 760.797 258.797 761.562 259.859 762.5C260.953 763.406 261.906 764.531 262.719 765.875C264.281 764.875 265.875 763.938 267.5 763.062C269.156 762.156 270.875 761.375 272.656 760.719C274.469 760.062 276.359 759.547 278.328 759.172C280.328 758.766 282.469 758.562 284.75 758.562C289.562 758.562 293.688 758.969 297.125 759.781C300.594 760.562 303.422 761.75 305.609 763.344C307.828 764.906 309.453 766.859 310.484 769.203C311.516 771.547 312.031 774.281 312.031 777.406V812H299.75V780.312C299.75 778.562 299.516 777.062 299.047 775.812C298.578 774.531 297.938 773.453 297.125 772.578C296.344 771.672 295.422 770.938 294.359 770.375C293.297 769.812 292.188 769.391 291.031 769.109C289.906 768.797 288.75 768.594 287.562 768.5C286.375 768.375 285.25 768.312 284.188 768.312C282.188 768.312 280.281 768.453 278.469 768.734C276.656 769.016 274.938 769.406 273.312 769.906C271.688 770.375 270.156 770.938 268.719 771.594C267.281 772.25 265.938 772.938 264.688 773.656V812H252.406V773.281ZM359.562 758.562C364.188 758.562 368.188 758.953 371.562 759.734C374.938 760.484 377.719 761.609 379.906 763.109C382.125 764.609 383.75 766.484 384.781 768.734C385.844 770.953 386.375 773.531 386.375 776.469C386.375 778.281 386.156 779.922 385.719 781.391C385.312 782.828 384.734 784.125 383.984 785.281C383.234 786.406 382.312 787.406 381.219 788.281C380.156 789.156 378.969 789.906 377.656 790.531C378.812 792.5 379.781 794.516 380.562 796.578C381.375 798.641 382.031 800.625 382.531 802.531C383.062 804.438 383.438 806.219 383.656 807.875C383.906 809.5 384.031 810.875 384.031 812H372.031C372.031 810.094 371.875 808.297 371.562 806.609C371.25 804.922 370.812 803.312 370.25 801.781C369.719 800.25 369.078 798.797 368.328 797.422C367.609 796.047 366.844 794.719 366.031 793.438C364.719 793.594 363.359 793.703 361.953 793.766C360.578 793.797 359.188 793.812 357.781 793.812C354.344 793.812 350.953 793.703 347.609 793.484C344.266 793.266 341.125 793.031 338.188 792.781V812H326.938V740.656H338.188V764.844C341.062 762.906 344.297 761.375 347.891 760.25C351.516 759.125 355.406 758.562 359.562 758.562ZM359.281 767.75C356.969 767.75 354.797 767.906 352.766 768.219C350.734 768.531 348.844 768.969 347.094 769.531C345.344 770.062 343.719 770.703 342.219 771.453C340.75 772.172 339.406 772.938 338.188 773.75V785.844C338.875 785.875 339.828 785.953 341.047 786.078C342.266 786.172 343.641 786.297 345.172 786.453C346.734 786.578 348.391 786.703 350.141 786.828C351.922 786.922 353.719 786.969 355.531 786.969C357.875 786.969 360.172 786.844 362.422 786.594C364.672 786.312 366.688 785.812 368.469 785.094C370.25 784.375 371.672 783.391 372.734 782.141C373.828 780.891 374.375 779.281 374.375 777.312C374.375 775.031 373.891 773.25 372.922 771.969C371.953 770.656 370.719 769.703 369.219 769.109C367.719 768.484 366.078 768.109 364.297 767.984C362.547 767.828 360.875 767.75 359.281 767.75ZM411.969 812H400.062V758.562H411.969V812ZM406.062 740C408.375 740 410.203 740.391 411.547 741.172C412.891 741.922 413.562 743.125 413.562 744.781V747.125C413.562 748.625 412.891 749.703 411.547 750.359C410.203 751.016 408.375 751.344 406.062 751.344C403.844 751.344 402.047 751.016 400.672 750.359C399.328 749.703 398.656 748.625 398.656 747.125V744.781C398.656 743.125 399.328 741.922 400.672 741.172C402.047 740.391 403.844 740 406.062 740ZM501.312 740.562C506.125 740.562 510.656 740.984 514.906 741.828C519.156 742.672 522.875 743.844 526.062 745.344C529.25 746.844 531.766 748.656 533.609 750.781C535.453 752.875 536.375 755.188 536.375 757.719V795.031C536.375 797.562 535.453 799.891 533.609 802.016C531.766 804.109 529.25 805.906 526.062 807.406C522.875 808.906 519.156 810.078 514.906 810.922C510.656 811.766 506.125 812.188 501.312 812.188C498.625 812.188 495.875 812.094 493.062 811.906C490.25 811.688 487.516 811.422 484.859 811.109C482.234 810.766 479.766 810.375 477.453 809.938C475.141 809.5 473.156 809.031 471.5 808.531V744.219C473.156 743.719 475.141 743.25 477.453 742.812C479.766 742.375 482.234 742 484.859 741.688C487.516 741.344 490.25 741.078 493.062 740.891C495.875 740.672 498.625 740.562 501.312 740.562ZM501.5 751.156C498.656 751.156 496.188 751.25 494.094 751.438C492 751.594 490.203 751.812 488.703 752.094C487.203 752.344 485.953 752.625 484.953 752.938C483.984 753.219 483.188 753.469 482.562 753.688V799.062C483.188 799.312 483.984 799.578 484.953 799.859C485.953 800.141 487.203 800.422 488.703 800.703C490.203 800.953 492 801.172 494.094 801.359C496.188 801.516 498.656 801.594 501.5 801.594C505 801.594 508.141 801.312 510.922 800.75C513.734 800.188 516.094 799.438 518 798.5C519.938 797.562 521.422 796.484 522.453 795.266C523.484 794.016 524 792.719 524 791.375V761.375C524 760.031 523.484 758.75 522.453 757.531C521.422 756.281 519.938 755.188 518 754.25C516.094 753.312 513.734 752.562 510.922 752C508.141 751.438 505 751.156 501.5 751.156ZM602 792.875C601.219 792.188 600.25 791.516 599.094 790.859C597.938 790.203 596.516 789.625 594.828 789.125C593.141 788.594 591.125 788.172 588.781 787.859C586.469 787.516 583.75 787.344 580.625 787.344C577.844 787.344 575.203 787.406 572.703 787.531C570.234 787.625 568.062 787.938 566.188 788.469C564.312 788.969 562.828 789.781 561.734 790.906C560.641 792.031 560.094 793.594 560.094 795.594V801.594C562.844 802.031 565.875 802.391 569.188 802.672C572.5 802.953 576.188 803.094 580.25 803.094C583.5 803.094 586.953 802.984 590.609 802.766C594.297 802.516 598.094 802.031 602 801.312V792.875ZM580.906 758.562C582.469 758.562 584.359 758.641 586.578 758.797C588.797 758.953 591.109 759.234 593.516 759.641C595.922 760.016 598.297 760.547 600.641 761.234C603.016 761.891 605.141 762.766 607.016 763.859C608.922 764.922 610.453 766.203 611.609 767.703C612.766 769.203 613.344 770.969 613.344 773V809.281C610.719 809.812 607.75 810.266 604.438 810.641C601.594 810.984 598.203 811.297 594.266 811.578C590.328 811.859 585.938 812 581.094 812C576.281 812 571.156 811.797 565.719 811.391C560.312 810.984 554.656 810.281 548.75 809.281V792.406C548.75 790.594 549.172 789.016 550.016 787.672C550.891 786.297 552.078 785.125 553.578 784.156C555.078 783.188 556.844 782.391 558.875 781.766C560.906 781.141 563.094 780.641 565.438 780.266C567.781 779.891 570.219 779.641 572.75 779.516C575.281 779.359 577.812 779.281 580.344 779.281C584.188 779.281 587.453 779.531 590.141 780.031C592.859 780.5 595.109 781.016 596.891 781.578C598.953 782.266 600.656 783.031 602 783.875V776.281C602 775 601.688 773.906 601.062 773C600.438 772.062 599.594 771.281 598.531 770.656C597.469 770 596.25 769.484 594.875 769.109C593.5 768.703 592.062 768.391 590.562 768.172C589.062 767.953 587.531 767.812 585.969 767.75C584.438 767.688 583 767.656 581.656 767.656C580.25 767.656 578.75 767.703 577.156 767.797C575.562 767.859 573.969 768 572.375 768.219C570.812 768.438 569.297 768.75 567.828 769.156C566.391 769.531 565.109 770.047 563.984 770.703C562.859 771.359 561.953 772.156 561.266 773.094C560.609 774 560.281 775.094 560.281 776.375L548.656 773.375C548.656 771.281 549.172 769.469 550.203 767.938C551.234 766.375 552.594 765.047 554.281 763.953C556 762.859 557.969 761.969 560.188 761.281C562.406 760.562 564.703 760.016 567.078 759.641C569.484 759.234 571.875 758.953 574.25 758.797C576.625 758.641 578.844 758.562 580.906 758.562ZM675.312 758.188C680.125 758.188 684.469 758.594 688.344 759.406C692.219 760.188 695.516 761.375 698.234 762.969C700.953 764.562 703.047 766.547 704.516 768.922C705.984 771.266 706.719 774 706.719 777.125V812H694.438V779.938C694.438 777.344 693.875 775.234 692.75 773.609C691.625 771.953 690.141 770.656 688.297 769.719C686.453 768.781 684.359 768.141 682.016 767.797C679.672 767.453 677.281 767.281 674.844 767.281V812H663.5V767.281C661.469 767.281 659.516 767.453 657.641 767.797C655.797 768.109 654.047 768.547 652.391 769.109C650.734 769.672 649.172 770.312 647.703 771.031C646.234 771.75 644.875 772.5 643.625 773.281V812H631.344V773.281C631.219 772.281 630.922 771.438 630.453 770.75C630.016 770.062 629.531 769.5 629 769.062C628.406 768.531 627.75 768.094 627.031 767.75L632.281 758.562C633.438 758.969 634.578 759.5 635.703 760.156C636.672 760.719 637.688 761.453 638.75 762.359C639.812 763.266 640.75 764.375 641.562 765.688C644.094 764.156 646.531 762.906 648.875 761.938C651.219 760.938 653.688 760.172 656.281 759.641C658.875 759.078 661.703 758.703 664.766 758.516C667.828 758.297 671.344 758.188 675.312 758.188ZM775.719 792.875C774.938 792.188 773.969 791.516 772.812 790.859C771.656 790.203 770.234 789.625 768.547 789.125C766.859 788.594 764.844 788.172 762.5 787.859C760.188 787.516 757.469 787.344 754.344 787.344C751.562 787.344 748.922 787.406 746.422 787.531C743.953 787.625 741.781 787.938 739.906 788.469C738.031 788.969 736.547 789.781 735.453 790.906C734.359 792.031 733.812 793.594 733.812 795.594V801.594C736.562 802.031 739.594 802.391 742.906 802.672C746.219 802.953 749.906 803.094 753.969 803.094C757.219 803.094 760.672 802.984 764.328 802.766C768.016 802.516 771.812 802.031 775.719 801.312V792.875ZM754.625 758.562C756.188 758.562 758.078 758.641 760.297 758.797C762.516 758.953 764.828 759.234 767.234 759.641C769.641 760.016 772.016 760.547 774.359 761.234C776.734 761.891 778.859 762.766 780.734 763.859C782.641 764.922 784.172 766.203 785.328 767.703C786.484 769.203 787.062 770.969 787.062 773V809.281C784.438 809.812 781.469 810.266 778.156 810.641C775.312 810.984 771.922 811.297 767.984 811.578C764.047 811.859 759.656 812 754.812 812C750 812 744.875 811.797 739.438 811.391C734.031 810.984 728.375 810.281 722.469 809.281V792.406C722.469 790.594 722.891 789.016 723.734 787.672C724.609 786.297 725.797 785.125 727.297 784.156C728.797 783.188 730.562 782.391 732.594 781.766C734.625 781.141 736.812 780.641 739.156 780.266C741.5 779.891 743.938 779.641 746.469 779.516C749 779.359 751.531 779.281 754.062 779.281C757.906 779.281 761.172 779.531 763.859 780.031C766.578 780.5 768.828 781.016 770.609 781.578C772.672 782.266 774.375 783.031 775.719 783.875V776.281C775.719 775 775.406 773.906 774.781 773C774.156 772.062 773.312 771.281 772.25 770.656C771.188 770 769.969 769.484 768.594 769.109C767.219 768.703 765.781 768.391 764.281 768.172C762.781 767.953 761.25 767.812 759.688 767.75C758.156 767.688 756.719 767.656 755.375 767.656C753.969 767.656 752.469 767.703 750.875 767.797C749.281 767.859 747.688 768 746.094 768.219C744.531 768.438 743.016 768.75 741.547 769.156C740.109 769.531 738.828 770.047 737.703 770.703C736.578 771.359 735.672 772.156 734.984 773.094C734.328 774 734 775.094 734 776.375L722.375 773.375C722.375 771.281 722.891 769.469 723.922 767.938C724.953 766.375 726.312 765.047 728 763.953C729.719 762.859 731.688 761.969 733.906 761.281C736.125 760.562 738.422 760.016 740.797 759.641C743.203 759.234 745.594 758.953 747.969 758.797C750.344 758.641 752.562 758.562 754.625 758.562Z" fill="black"/>
<line x1="31" y1="845.5" x2="836" y2="845.5" stroke="black"/>
<defs>
<filter id="filter0_d" x="-34.0618" y="148" width="353.124" height="389" filterUnits="userSpaceOnUse" color-interpolation-filters="sRGB">
<feFlood flood-opacity="0" result="BackgroundImageFix"/>
<feColorMatrix in="SourceAlpha" type="matrix" values="0 0 0 0 0 0 0 0 0 0 0 0 0 0 0 0 0 0 127 0" result="hardAlpha"/>
<feOffset dy="4"/>
<feGaussianBlur stdDeviation="40"/>
<feComposite in2="hardAlpha" operator="out"/>
<feColorMatrix type="matrix" values="0 0 0 0 0 0 0 0 0 0 0 0 0 0 0 0 0 0 0.25 0"/>
<feBlend mode="normal" in2="BackgroundImageFix" result="effect1_dropShadow"/>
<feBlend mode="normal" in="SourceGraphic" in2="effect1_dropShadow" result="shape"/>
</filter>
<filter id="filter1_d" x="261.938" y="368" width="353.124" height="389" filterUnits="userSpaceOnUse" color-interpolation-filters="sRGB">
<feFlood flood-opacity="0" result="BackgroundImageFix"/>
<feColorMatrix in="SourceAlpha" type="matrix" values="0 0 0 0 0 0 0 0 0 0 0 0 0 0 0 0 0 0 127 0" result="hardAlpha"/>
<feOffset dy="4"/>
<feGaussianBlur stdDeviation="40"/>
<feComposite in2="hardAlpha" operator="out"/>
<feColorMatrix type="matrix" values="0 0 0 0 0 0 0 0 0 0 0 0 0 0 0 0 0 0 0.25 0"/>
<feBlend mode="normal" in2="BackgroundImageFix" result="effect1_dropShadow"/>
<feBlend mode="normal" in="SourceGraphic" in2="effect1_dropShadow" result="shape"/>
</filter>
<filter id="filter2_d" x="572.938" y="155" width="353.124" height="389" filterUnits="userSpaceOnUse" color-interpolation-filters="sRGB">
<feFlood flood-opacity="0" result="BackgroundImageFix"/>
<feColorMatrix in="SourceAlpha" type="matrix" values="0 0 0 0 0 0 0 0 0 0 0 0 0 0 0 0 0 0 127 0" result="hardAlpha"/>
<feOffset dy="4"/>
<feGaussianBlur stdDeviation="40"/>
<feComposite in2="hardAlpha" operator="out"/>
<feColorMatrix type="matrix" values="0 0 0 0 0 0 0 0 0 0 0 0 0 0 0 0 0 0 0.25 0"/>
<feBlend mode="normal" in2="BackgroundImageFix" result="effect1_dropShadow"/>
<feBlend mode="normal" in="SourceGraphic" in2="effect1_dropShadow" result="shape"/>
</filter>
<filter id="filter3_d" x="276.938" y="-51" width="353.124" height="389" filterUnits="userSpaceOnUse" color-interpolation-filters="sRGB">
<feFlood flood-opacity="0" result="BackgroundImageFix"/>
<feColorMatrix in="SourceAlpha" type="matrix" values="0 0 0 0 0 0 0 0 0 0 0 0 0 0 0 0 0 0 127 0" result="hardAlpha"/>
<feOffset dy="4"/>
<feGaussianBlur stdDeviation="40"/>
<feComposite in2="hardAlpha" operator="out"/>
<feColorMatrix type="matrix" values="0 0 0 0 0 0 0 0 0 0 0 0 0 0 0 0 0 0 0.25 0"/>
<feBlend mode="normal" in2="BackgroundImageFix" result="effect1_dropShadow"/>
<feBlend mode="normal" in="SourceGraphic" in2="effect1_dropShadow" result="shape"/>
</filter>
</defs>
</svg>
